<svg xmlns="http://www.w3.org/2000/svg" width="1000" height="600">
    <path d="m321.376 7.725 2.671-.029 2.879.003 2.97-.013c2.076-.006 4.151-.006 6.227-.002 3.167.003 6.333-.02 9.5-.045 2.018-.003 4.035-.003 6.053-.002l2.86-.028c6.334.044 10.75.916 15.589 5.328 6.602 10.783 8.417 25.039 11.313 37.188 2.77 11.589 5.57 23.146 8.818 34.612 1.94 6.876 3.613 13.807 5.244 20.763 1.91 8.04 3.852 16.054 6.125 24a374.977 374.977 0 0 1 4.563 17.625c2.298 9.826 4.71 19.622 7.152 29.413l1.295 5.208c2.41 9.716 4.926 19.39 7.638 29.026a397.667 397.667 0 0 1 4.54 17.853l.654 2.79A2239.8 2239.8 0 0 1 429 238c1.852-3.296 2.677-6.467 3.48-10.152l.828-3.744.433-1.991c.768-3.529 1.555-7.053 2.341-10.578l.486-2.185c1.52-6.804 3.151-13.579 4.807-20.35 2.8-11.48 5.482-22.983 8.125-34.5a3041.974 3041.974 0 0 1 8.97-38.038c4.236-17.447 8.345-34.926 12.183-52.465 1.178-5.344 2.488-10.648 3.848-15.948 1.103-4.337 2.075-8.69 2.999-13.068C481.886 14.316 481.886 14.316 488 10c5.206-2.2 9.938-2.322 15.492-2.336l2.742-.02c1.908-.01 3.816-.015 5.724-.015 2.901-.004 5.8-.04 8.702-.078 1.86-.006 3.722-.01 5.582-.012l2.602-.043C534.6 7.539 539.274 8.559 544 12c4.442 5.708 5.44 13.283 6.893 20.193.727 3.457 1.49 6.907 2.248 10.358l.465 2.14c1.548 7.086 3.239 14.137 4.957 21.184l.877 3.615c.852 3.503 1.706 7.007 2.56 10.51 3.251 13.343 6.449 26.685 9.264 40.128.95 4.482 1.993 8.904 3.224 13.317 1.836 6.59 3.218 13.257 4.617 19.95.998 4.693 2.064 9.335 3.356 13.957 1.8 6.454 3.223 12.98 4.664 19.523C591.148 204.981 595.566 222.99 600 241c2.83-7.87 4.802-15.922 6.787-24.036.992-4.052 1.996-8.102 3.002-12.152l.59-2.375a545.912 545.912 0 0 1 4.949-18.388c1.807-6.364 3.297-12.794 4.798-19.236 1.5-6.388 3.2-12.696 4.999-19.004 1.618-5.735 3.023-11.506 4.375-17.309a468.644 468.644 0 0 1 5.625-21.762c1.57-5.553 2.997-11.134 4.375-16.738a600.197 600.197 0 0 1 5.484-20.644c2-7.121 3.75-14.3 5.516-21.481C657.03 21.454 657.03 21.454 662 12h2v-2c5.374-2.219 10.174-2.291 15.887-2.266l2.845-.005c1.976-.002 3.952.002 5.927.01 3.029.011 6.057 0 9.085-.012 1.923 0 3.845.003 5.768.007l2.746-.012 2.55.02 2.24.004C713 8 713 8 716 10c3.635 10.905-1.5 22.776-5.022 33.08-1.625 4.772-3.082 9.577-4.478 14.42-1.914 6.629-4.035 13.153-6.25 19.687-1.358 4.074-2.559 8.188-3.75 12.313-1.914 6.628-4.035 13.153-6.25 19.687-1.358 4.074-2.559 8.188-3.75 12.313-1.914 6.628-4.035 13.153-6.25 19.687-1.358 4.074-2.559 8.188-3.75 12.313-1.914 6.628-4.035 13.153-6.25 19.687-1.358 4.074-2.559 8.188-3.75 12.313-1.914 6.628-4.035 13.153-6.25 19.687-1.358 4.074-2.559 8.188-3.75 12.313-1.914 6.628-4.035 13.153-6.25 19.687-1.358 4.074-2.559 8.188-3.75 12.313-1.913 6.623-4.026 13.142-6.25 19.668-1.15 3.446-2.145 6.927-3.125 10.425-5.401 19.175-5.401 19.175-12.184 23.553-3.993 1.757-8.308 1.4-12.597 1.35l-3.093.005a726.558 726.558 0 0 1-6.455-.034c-3.285-.03-6.569-.021-9.855-.008-2.095-.006-4.19-.015-6.285-.025l-2.964.008c-5.306-.073-9.116-.447-13.692-3.442-4.974-6.084-6.311-14.564-7.91-22.07-1.51-7.02-3.33-13.97-5.09-20.93-9.072-35.966-9.072-35.966-12.328-50.673-1.43-6.408-3.081-12.738-4.798-19.075-1.663-6.231-3.043-12.505-4.374-18.815-1.42-6.717-2.951-13.346-4.875-19.937-2.406-8.275-4.31-16.655-6.187-25.063l-.46-2.055c-.735-3.293-1.468-6.587-2.2-9.882-2.515-11.313-5.173-22.475-8.778-33.5l-.396 1.857c-2.481 11.622-5.028 23.203-7.982 34.714-4.215 16.471-8.269 32.967-11.977 49.56-3.19 14.2-6.45 28.383-10.04 42.488-5.273 20.707-5.273 20.707-10.167 41.506l-.592 2.623a4436.75 4436.75 0 0 0-2.576 11.545c-.771 3.467-1.551 6.93-2.332 10.394l-.708 3.222c-4.405 19.448-4.405 19.448-10.23 25.091-3.028 1.833-5.278 2.252-8.797 2.259l-2.872.019-3.081-.012-3.183.005c-2.219.002-4.438-.002-6.657-.01-3.397-.011-6.794 0-10.191.012-2.157 0-4.313-.003-6.469-.007l-3.081.012-2.872-.02-2.52-.004c-2.487-.277-4.125-1.009-6.277-2.254v-2h-2c-3.324-6.143-5.397-12.156-7.25-18.875-.606-2.139-1.214-4.277-1.824-6.414l-.95-3.34c-1.61-5.563-3.323-11.091-5.038-16.621-2.383-7.7-4.752-15.403-7.063-23.125l-.725-2.42a5198.226 5198.226 0 0 1-3.677-12.357c-2.238-7.531-4.501-15.036-7.035-22.473-2.096-6.173-3.86-12.395-5.563-18.684A236.86 236.86 0 0 0 354.5 161.5c-2.124-6.213-3.91-12.472-5.625-18.809A237.04 237.04 0 0 0 344.5 128.5c-2.124-6.213-3.91-12.472-5.625-18.809A237.04 237.04 0 0 0 334.5 95.5c-2.124-6.213-3.91-12.472-5.625-18.809A237.04 237.04 0 0 0 324.5 62.5c-2.379-6.973-4.374-14.016-6.3-21.125a324.677 324.677 0 0 0-2.368-8.313c-4.873-16.324-4.873-16.324-3.027-21.18 2.254-3.55 4.633-4.133 8.571-4.157Z" fill="#FDFDFD"/>
    <path d="M14 394c4.674 2.147 8.939 5.059 13.234 7.868C31.34 404.5 35.698 406.708 40 409l3.344 1.828c7.727 4.208 15.57 8.088 23.54 11.816A514.661 514.661 0 0 1 81.936 430c12.811 6.475 25.96 12.224 39.26 17.615a235.57 235.57 0 0 1 11.365 4.947c6.155 2.845 12.496 5.154 18.858 7.482a762.67 762.67 0 0 1 6.095 2.293c9.485 3.605 19.035 6.93 28.673 10.1a19684.57 19684.57 0 0 1 10.874 3.593 950.492 950.492 0 0 1 11.829 3.99c12.581 4.327 25.315 7.83 38.184 11.2a318.76 318.76 0 0 1 7.452 2.085c13.064 3.824 26.359 6.608 39.664 9.446 3.924.838 7.842 1.702 11.754 2.597 65.256 14.851 132.617 20.892 199.435 20.782 3.487-.005 6.974-.002 10.462.004C563.602 526.2 610.813 522.3 658 515l3.153-.484c12.968-2.011 25.769-4.494 38.574-7.36a335.564 335.564 0 0 1 13.648-2.719c12.068-2.213 23.903-5.166 35.7-8.517a366.93 366.93 0 0 1 13.982-3.643c19.88-4.798 39.23-11.298 58.568-17.902l2.413-.823c9.524-3.255 18.987-6.634 28.394-10.213a462.968 462.968 0 0 1 10.88-3.901c4.226-1.495 8.311-3.112 12.375-5 18.761-8.706 18.761-8.706 28.563-5.313 4.508 3.074 7.184 5.245 8.34 10.617.435 5.995-.248 9.651-4.215 14.258-8.189 8-8.189 8-12.375 8v2c-1.661 1.31-1.661 1.31-3.988 2.793l-2.567 1.652-2.758 1.743-2.767 1.768a2195.494 2195.494 0 0 1-5.45 3.469 435.096 435.096 0 0 0-6.142 3.99l-2.89 1.897-2.442 1.614C865 504 865 504 862 504v2c-17.918 9.828-36.036 19.147-54.535 27.835a441.365 441.365 0 0 0-6.188 2.985c-8.597 4.163-17.42 7.742-26.277 11.305l-1.906.77c-9.26 3.734-18.6 7.017-28.094 10.105a1667.2 1667.2 0 0 0-5.355 1.809C702.525 573.349 664.598 583.214 626 590l-2.782.491c-13.025 2.267-26.093 4.069-39.218 5.634-.664.08-1.328.16-2.012.244-4.198.504-8.398.963-12.605 1.388-1.617.165-3.235.337-4.851.515-20.3 2.195-40.624 2.036-61.015 1.989-4.956-.012-9.911-.005-14.867.007-20.638.04-41.105-.09-61.65-2.268l-4.74-.475a676.508 676.508 0 0 1-12.26-1.4l-2.14-.257c-20.845-2.513-41.451-5.745-61.966-10.24a780.132 780.132 0 0 0-8.453-1.776c-40.664-8.442-83.045-19.945-120.75-37.645-2.941-1.32-5.92-2.455-8.941-3.582-6.724-2.547-13.19-5.536-19.67-8.636a785.486 785.486 0 0 0-6.588-3.087c-9.862-4.596-19.53-9.479-29.133-14.593-5.401-2.875-10.867-5.612-16.359-8.309v-2l-1.707-.328c-2.658-.779-4.633-1.955-6.98-3.422-3.111-1.914-6.22-3.771-9.438-5.5-15.591-8.582-30.25-18.883-44.871-28.992a729.545 729.545 0 0 0-7.914-5.39l-1.838-1.245c-1.654-1.12-3.312-2.233-4.97-3.346L56 456v-2l-2.313-.875C51 452 51 452 48 450v-2l-1.625-.75c-2.957-1.557-5.672-3.284-8.375-5.25v-2l-1.625-.75c-2.957-1.557-5.672-3.284-8.375-5.25v-2l-1.672-.75c-2.78-1.492-5.11-3.287-7.578-5.25l-2.703-2.125L14 422v-2l-1.742-.785c-2.442-1.314-4.308-2.818-6.383-4.652l-2.07-1.81c-3.222-3.13-4.114-5.305-4.18-9.69.093-3.192.252-4.829 1.75-7.688C5.757 393.08 9.177 392.865 14 394Z" fill="#F90"/>
    <path d="M163.485-.316c3.31.003 6.62-.02 9.931-.045C197.524-.433 226.222 2.776 246 18v2l2.207.73c3.172 1.442 5.035 3.112 7.48 5.583l2.325 2.3c2.003 2.405 3.01 4.434 3.988 7.387h2c12.204 20.558 18.306 40.826 18.287 64.906l.02 4.011c.016 2.852.024 5.704.029 8.556.006 4.525.028 9.05.052 13.575.049 9.61.081 19.218.112 28.827.033 10.372.07 20.744.124 31.116.023 4.482.037 8.965.044 13.447.006 2.807.02 5.613.036 8.42.008 1.887.007 3.775.006 5.662.082 11.527.859 23.322 5.04 34.168l.784 2.131c2.038 5.402 4.46 10.566 7.17 15.665 2.582 5.011 4.514 9.809 3.296 15.516-2.616 4.472-5.15 7.18-9.465 10.016l-3.174 2.101-3.298 2.133-3.288 2.18C266.99 306.822 266.99 306.822 260 306c-2.774-1.154-5.39-2.516-8-4v-2h-2v-2h-2c-4-5.412-4-5.412-4-8h-2c-4-6.625-4-6.625-4-10h-2l-5-11c-3.952 1.627-3.952 1.627-5.75 4.188-3.564 4.454-7.764 8.983-13.25 10.812v2c-5.412 4-5.412 4-8 4v2c-5.54 3.973-11.805 7.165-18 10l-2.156.992c-15.904 6.839-33.46 9.4-50.656 9.32l-3.705-.01c-9.182-.11-17.6-.967-26.483-3.302l-2.617-.586C91.21 306.1 81.837 301.224 74 296v-2l-2.242-.758c-2.983-1.343-4.626-2.772-6.883-5.117l-2.008-2.055C58 280.674 58 280.674 58 278h-2c-4.248-5.322-6.85-11.688-9.25-18l-.745-1.937c-3.773-10.324-4.378-20.418-4.376-31.32-.004-2.343-.04-4.685-.078-7.028-.1-13.207 1.756-26.095 8.074-37.902l1.021-1.973c5.228-9.734 13.173-22.326 23.292-27.277L76 152v-2c10.546-9.434 26.498-14.807 40-18l2.387-.61c26.099-6.012 53.96-3.801 80.113.485l2.78.452c8.348 1.449 16.521 3.553 24.72 5.673a2689.51 2689.51 0 0 0-.262-16.803c-.033-1.9-.062-3.8-.084-5.7-.136-10.927-.595-20.945-3.654-31.497-.418-1.729-.835-3.458-1.25-5.187-3.211-10.25-11.041-18.846-20.375-24A97.376 97.376 0 0 0 196 53l-2.703-1.059c-35.459-11.92-79.126-2.628-112.04 13.024-4.9 2.247-9.82 3.76-15.257 3.035-3.152-2.385-4.296-4.185-5-8-.251-4.06-.231-8.121-.25-12.187l-.062-3.33C60.655 37.645 61.45 32.352 64 26h2v-2c19.613-10.276 40.202-17.784 62-22l2.803-.556c10.848-1.857 21.705-1.782 32.682-1.76ZM122 178v2l-2.312.875c-2.838 1.088-2.838 1.088-5.688 3.125v2h-2c-2.962 3.633-2.962 3.633-4 8h-2c-7.291 16.635-7.935 32.82-2 50 5.137 10.76 14.226 16.923 25 21.188 20.913 5.664 44.967.155 64-9.188 3.14-1.81 6.248-3.63 9-6v-2l1.766-.797c10.752-5.79 17.239-18.904 20.734-30.14 3.238-12.7 1.818-27.074 1.5-40.063a161.864 161.864 0 0 0-14-3.5l-3.5-.719c-12.472-2.244-24.566-3.154-37.215-3.152-2.65-.004-5.299-.04-7.95-.078-14.57-.096-28.192 1.758-41.335 8.449ZM852.313-.5l2.842.017C869.426-.385 883.133.384 897 4l2.784.698C931.87 12.853 931.87 12.853 941 26c2.144 4.288 1.227 9.987 1.24 14.749.01 2.111.041 4.222.072 6.333.007 1.345.012 2.69.016 4.035l.028 3.707c-.382 3.407-.954 4.78-3.356 7.176-7.353 2.191-14.054-1.063-20.602-4.149-5.037-2.344-10.042-4.13-15.398-5.601l-2.006-.563c-2.321-.617-4.65-1.16-6.994-1.687l-3.442-.791c-9.883-2.08-19.405-2.707-29.494-2.655a466.04 466.04 0 0 1-7.488-.052c-14.336-.063-28.013 1.61-40.474 9.228C811 57 811 57 808 58v2h-2v2h-2l-.813 2.5C802 68 802 68 800.375 71.5c-3.22 8.622-2.224 18.148 1.457 26.414 1.146 2.162 1.146 2.162 2.805 4.234C806 104 806 104 806 106h2v2l2.063.688C813 110 813 110 815.938 112.25c10.31 7.522 23.947 10.847 35.955 14.672 2.851.909 5.7 1.827 8.548 2.748a4806.615 4806.615 0 0 0 20.926 6.721c13.445 4.281 26.325 8.64 38.633 15.609l3.184 1.762c4.982 2.854 4.982 2.854 6.816 4.238v2l1.734.75c2.616 1.443 4.414 3.132 6.516 5.25l2.14 2.125C942 170 942 170 942 172h2c9.396 15.827 9.396 15.827 12 24l1.078 3.316c1.44 5.946 1.294 12.053 1.293 18.135.004 2.083.04 4.164.078 6.246.104 12.305-2.2 23.62-7.699 34.74l-1.578 3.247L948 264h-2l-.438 1.875C945 268 945 268 944 270h-2l-.75 2.188c-1.373 3.088-2.974 5.322-5.25 7.812h-2v2h-2v2c-1.68 1.508-1.68 1.508-3.875 3.125l-2.18 1.633C924 290 924 290 922 290v2c-1.906 1.367-1.906 1.367-4.5 2.875l-2.531 1.492c-11.979 6.588-24.407 11.09-37.782 13.945l-2.239.483c-11.234 2.246-22.59 2.4-34.01 2.392h-2.058c-11.068-.02-21.926-.542-32.88-2.187l-2.094-.292c-19.943-2.833-40.483-8.43-57.906-18.708v-2h-2v-2h-2c-3.327-7.667-4.21-13.423-4.25-21.813l-.063-3.275c-.05-10.225-.05-10.225 3.313-14.912 4.176-2.13 7.158-2.21 11.563-1 4.045 1.377 7.91 3.075 11.812 4.813 13.894 6.07 28.635 10 43.625 12.187l2.082.312C837.17 268.23 863.5 267.092 888 254a555.53 555.53 0 0 1 4-2v-2h2l.836-2.242C896 245 896 245 897.289 242.992c5.1-8.082 5.064-17.749 3.711-26.992-1.248-3.722-2.903-6.713-5-10v-2h-2v-2h-2v-2l-2-.688c-2.43-1.062-4.214-2.094-6.375-3.562-15.324-9.698-35.312-14.622-52.688-19.25-19.506-5.236-37.457-12.422-54.937-22.5v-2l-2.063-.625c-6.867-3.214-12-8.972-15.937-15.375v-2h-2l-2-6h-2c-6.914-12.84-10.401-26.249-10.313-40.813l.015-2.921c.122-7.422.964-14.188 3.298-21.266l1.031-3.25c2.794-8.002 6.59-15.16 11.969-21.75h2l.688-1.672c1.7-3.015 3.86-5.14 6.312-7.578l2.688-2.703C772 24 772 24 774 24v-2c1.863-1.508 1.863-1.508 4.313-3.125l2.425-1.633C783 16 783 16 786 16v-2C807.013 3.167 828.804-.774 852.313-.5Z" fill="#FDFDFD"/>
    <path d="m965 376 2.292.407C991 380.778 991 380.778 998 389c2.008 4.04 2.28 7.449 2.336 11.934l.025 2.017c.02 2.162.02 4.324.014 6.486l-.002 2.244c-.043 12.8-1.218 24.877-4.373 37.319l-.65 2.62c-4.886 19.3-11.881 37.865-21.35 55.38l-.968 1.814c-4.41 8.213-9.418 15.817-14.93 23.323A158.48 158.48 0 0 0 954 538h-2l-.8 1.784c-1.244 2.297-2.55 3.824-4.388 5.67l-1.867 1.874L943 549.25l-1.945 1.969-1.867 1.86-1.708 1.7C936 556 936 556 934 556v2c-3.915 2.61-7.452 2.22-12 2l-2-1c-2.14-6.869-.265-12.262 2.563-18.563.755-1.784 1.509-3.57 2.261-5.355l1.134-2.638c9.6-22.523 17.347-46.649 23.042-70.444l.584-2.43c1.396-6.3 1.782-12.378 1.791-18.82l.074-2.89c.025-5.83-.501-9.27-4.449-13.86l-1.398-1.746c-21.871-17.123-72.297-7.034-97.227-4.195l-2.461.28c-3.98.457-7.959.93-11.935 1.428l-4.377.526-3.865.485c-4.175.248-7.627-.024-11.737-.778-2-2-2-2-2.5-5.188.777-5.923 3.903-8.763 8.48-12.375 5.967-4.173 12.438-7.358 19.02-10.437l3.176-1.5c16.523-7.456 33.967-11.698 51.824-14.5l2.224-.36c21.927-3.38 46.916-3.57 68.776.36Z" fill="#F90"/>
    <path d="m74 152 2 1-15 15-2-1c1.746-1.941 3.496-3.878 5.25-5.813l1.488-1.658c2.58-2.837 5.068-5.362 8.262-7.529Z" fill="#DFE0E3"/>
</svg>
