<svg id="Layer_1" xmlns="http://www.w3.org/2000/svg" viewBox="0 0 83.54 104.92">
    <defs>
        <style>
            .cls-1{fill:#ff9100}
        </style>
    </defs>
    <path class="cls-1" d="M26.16 101.91c4.39 1.77 9.15 2.82 14.15 2.99 6.77.24 13.2-1.16 18.96-3.82a58.958 58.958 0 0 1-18.48-11.6 31.575 31.575 0 0 1-14.63 12.43Z"/>
    <path d="M40.79 89.47C28.62 78.21 21.23 61.92 21.86 44.04c.02-.58.05-1.16.09-1.74-2.18-.56-4.46-.91-6.8-.99-3.35-.12-6.6.3-9.67 1.16A41.568 41.568 0 0 0 .03 61.7c-.63 18.06 10.3 33.83 26.14 40.21A31.633 31.633 0 0 0 40.8 89.48Z" style="fill:#ffc400"/>
    <path class="cls-1" d="M40.79 89.47c2.83-4.53 4.55-9.84 4.75-15.56.53-15.05-9.59-28-23.59-31.61-.04.58-.07 1.16-.09 1.74-.62 17.87 6.76 34.17 18.93 45.43Z"/>
    <path d="M43.97 0C36 6.39 29.7 14.81 25.89 24.52a58.933 58.933 0 0 0-3.95 17.79c14 3.61 24.12 16.56 23.59 31.61-.2 5.72-1.92 11.03-4.75 15.56a58.958 58.958 0 0 0 18.48 11.6c13.85-6.4 23.67-20.18 24.24-36.47.37-10.56-3.69-19.96-9.42-27.91C68.04 28.3 43.97 0 43.97 0Z" style="fill:#dd2c00"/>
</svg>
