<?xml version="1.0" encoding="UTF-8"?>
<svg version="1.1" xmlns="http://www.w3.org/2000/svg" width="1000" height="600">
<path d="M0 0 C1.32201164 -0.01429802 1.32201164 -0.01429802 2.67073059 -0.02888489 C3.62074448 -0.02797348 4.57075836 -0.02706207 5.54956055 -0.02612305 C6.52990768 -0.03040817 7.51025482 -0.0346933 8.52030945 -0.03910828 C10.59572579 -0.04485347 12.67116227 -0.04535045 14.74658203 -0.04101562 C17.91368272 -0.03786428 21.07984159 -0.06128278 24.24682617 -0.08666992 C26.26440312 -0.08894383 28.28198258 -0.08964599 30.29956055 -0.08862305 C31.24350174 -0.09783279 32.18744293 -0.10704254 33.1599884 -0.11653137 C39.49398712 -0.07224168 43.90889234 0.79932009 48.7487793 5.2121582 C55.35051579 15.99499448 57.16619844 30.25046281 60.0612793 42.3996582 C62.83186148 53.98834465 65.6322616 65.54615665 68.87962341 77.0116272 C70.82034871 83.88810546 72.49277433 90.81853293 74.1237793 97.7746582 C76.03432747 105.81492497 77.97551007 113.82866876 80.2487793 121.7746582 C81.91734044 127.62027498 83.42795017 133.47997986 84.8112793 139.3996582 C87.10964571 149.2256052 89.52204788 159.02173412 91.96353149 168.81292725 C92.39609345 170.54857336 92.82774756 172.28444605 93.25839233 174.02056885 C95.66939723 183.73652352 98.18506626 193.40989149 100.89640808 203.04652405 C102.55584714 208.96507273 104.05239215 214.91037611 105.4362793 220.8996582 C105.65219727 221.82004883 105.86811523 222.74043945 106.09057617 223.6887207 C106.60492844 225.88329037 107.11605524 228.0785476 107.6237793 230.2746582 C109.47538731 226.97842731 110.30114337 223.80757903 111.10424805 220.12231445 C111.51392822 218.26896484 111.51392822 218.26896484 111.93188477 216.37817383 C112.07478943 215.72115479 112.21769409 215.06413574 112.3649292 214.38720703 C113.13317138 210.85873468 113.91984664 207.33437444 114.70581055 203.80981445 C114.86633911 203.08855377 115.02686768 202.36729309 115.19226074 201.62417603 C116.71246338 194.82087683 118.34282466 188.04613229 119.9987793 181.2746582 C122.79955811 169.7950507 125.48102674 158.29147371 128.1237793 146.7746582 C131.03857597 134.07598331 134.01603078 121.39668309 137.09375 108.73632812 C141.32987794 91.28989377 145.43909037 73.81057928 149.27685547 56.27197266 C150.45499479 50.92806494 151.76430269 45.62372549 153.12451172 40.32348633 C154.22763373 35.98651765 155.20026849 31.63417479 156.1237793 27.25561523 C160.50946408 6.59064541 160.50946408 6.59064541 166.6237793 2.2746582 C171.82965713 0.07559772 176.56183815 -0.04694932 182.1159668 -0.0612793 C183.47312302 -0.0712645 183.47312302 -0.0712645 184.85769653 -0.08145142 C186.76554339 -0.0915441 188.6734253 -0.09626949 190.58129883 -0.09594727 C193.482776 -0.10031769 196.38272731 -0.13666521 199.28393555 -0.17456055 C201.14460747 -0.18043017 203.00528656 -0.18439859 204.8659668 -0.1862793 C206.15384598 -0.20783585 206.15384598 -0.20783585 207.46774292 -0.22982788 C213.22347435 -0.18668443 217.89765205 0.83414228 222.6237793 4.2746582 C227.06531532 9.982488 228.06364208 17.55718464 229.51663208 24.4677124 C230.24407748 27.92502217 231.00760662 31.37445987 231.7644043 34.82543945 C231.9949929 35.88444458 231.9949929 35.88444458 232.23023987 36.96484375 C233.77818691 44.05172024 235.4683903 51.10216522 237.1862793 58.1496582 C237.62073364 59.93883667 237.62073364 59.93883667 238.06396484 61.76416016 C238.91558016 65.26806516 239.76941664 68.7714222 240.6237793 72.2746582 C243.87520961 85.61788461 247.07246178 98.95982586 249.88793945 112.40307617 C250.83687415 116.88466227 251.88112362 121.30682224 253.11206055 125.7199707 C254.94730442 132.30913146 256.3293487 138.97676742 257.72924805 145.66918945 C258.72633333 150.36247622 259.79308877 155.00457459 261.0847168 159.6262207 C262.88465865 166.08078927 264.30742681 172.60728577 265.7487793 179.1496582 C269.77215645 197.2561239 274.18989542 215.26512713 278.6237793 233.2746582 C281.45464378 225.40413369 283.42538984 217.35264942 285.4107666 209.23904419 C286.40293047 205.18630092 287.40682054 201.13648105 288.4128418 197.0871582 C288.6075708 196.30325211 288.8022998 195.51934601 289.00292969 194.71168518 C290.54062452 188.54903127 292.19988795 182.42890882 293.95141602 176.32373047 C295.75846454 169.95987917 297.24917257 163.52925892 298.74975586 157.08740234 C300.2501781 150.70004148 301.94951552 144.39192058 303.7487793 138.08325195 C305.36708575 132.34837846 306.7721516 126.57768167 308.1237793 120.7746582 C309.82746498 113.46544731 311.69726197 106.23171605 313.7487793 99.01293945 C315.31874166 93.45919759 316.74546614 87.87882999 318.1237793 82.2746582 C319.82739675 75.3537949 321.65969997 68.48611439 323.6081543 61.63061523 C325.60702167 54.50965023 327.35800725 47.3313501 329.1237793 40.1496582 C335.6542614 13.72816638 335.6542614 13.72816638 340.6237793 4.2746582 C341.2837793 4.2746582 341.9437793 4.2746582 342.6237793 4.2746582 C342.6237793 3.6146582 342.6237793 2.9546582 342.6237793 2.2746582 C347.99825624 0.05590314 352.79804606 -0.01665754 358.51049805 0.0090332 C359.44932327 0.00711975 360.3881485 0.0052063 361.35542297 0.00323486 C363.33135243 0.00187858 365.30729097 0.005536 367.28320312 0.01391602 C370.31164413 0.0246595 373.33949681 0.01398333 376.36791992 0.0012207 C378.29044727 0.00254169 380.21297426 0.00510282 382.13549805 0.0090332 C383.04176437 0.00498474 383.9480307 0.00093628 384.88175964 -0.00323486 C386.14370903 0.00622162 386.14370903 0.00622162 387.43115234 0.01586914 C388.53984932 0.01825592 388.53984932 0.01825592 389.67094421 0.02069092 C391.6237793 0.2746582 391.6237793 0.2746582 394.6237793 2.2746582 C398.25867239 13.17933748 393.12443956 25.05104176 389.6015625 35.35522461 C387.97704848 40.12681983 386.51973526 44.93164654 385.1237793 49.7746582 C383.20982017 56.40318201 381.08895655 62.92738531 378.8737793 69.4621582 C377.5159907 73.535524 376.31500563 77.65003704 375.1237793 81.7746582 C373.20943362 88.40308012 371.08896422 94.92736267 368.8737793 101.4621582 C367.5159907 105.535524 366.31500563 109.65003704 365.1237793 113.7746582 C363.20943362 120.40308012 361.08896422 126.92736267 358.8737793 133.4621582 C357.5159907 137.535524 356.31500563 141.65003704 355.1237793 145.7746582 C353.20943362 152.40308012 351.08896422 158.92736267 348.8737793 165.4621582 C347.5159907 169.535524 346.31500563 173.65003704 345.1237793 177.7746582 C343.20943362 184.40308012 341.08896422 190.92736267 338.8737793 197.4621582 C337.5159907 201.535524 336.31500563 205.65003704 335.1237793 209.7746582 C333.20943362 216.40308012 331.08896422 222.92736267 328.8737793 229.4621582 C327.5159907 233.535524 326.31500563 237.65003704 325.1237793 241.7746582 C323.21109931 248.39731264 321.09765838 254.91693176 318.8737793 261.44262695 C317.72343961 264.88915251 316.72917819 268.36953065 315.74902344 271.86767578 C310.3473957 291.0422942 310.3473957 291.0422942 303.5643158 295.42048645 C299.57191542 297.17783326 295.25675095 296.82000691 290.9675293 296.77075195 C289.94703491 296.77220718 288.92654053 296.77366241 287.87512207 296.77516174 C285.72344093 296.77350613 283.57174753 296.76198283 281.42016602 296.74121094 C278.13465858 296.71225409 274.85076582 296.72061042 271.56518555 296.73364258 C269.47012565 296.72740466 267.37507084 296.7190133 265.2800293 296.70825195 C264.30175171 296.71118759 263.32347412 296.71412323 262.31555176 296.71714783 C257.01006089 296.64409205 253.19974733 296.26967847 248.6237793 293.2746582 C243.65016137 287.19018145 242.31228569 278.71023957 240.71362305 271.2043457 C239.20467667 264.18396697 237.38358651 257.23539638 235.6237793 250.2746582 C226.55188828 214.30834033 226.55188828 214.30834033 223.29589844 199.60205078 C221.86637137 193.19367631 220.21452714 186.8632259 218.49780273 180.52661133 C216.83457665 174.29536996 215.45502304 168.02179629 214.1237793 161.7121582 C212.70410897 154.99433109 211.17233003 148.3661191 209.2487793 141.7746582 C206.84230826 133.49957163 204.93805083 125.11988573 203.0612793 116.7121582 C202.90970367 116.03388977 202.75812805 115.35562134 202.60195923 114.65679932 C201.86657847 111.36337749 201.1337826 108.06939235 200.40209961 104.77514648 C197.88658464 93.46164156 195.228516 82.29978376 191.6237793 71.2746582 C191.49326172 71.88760742 191.36274414 72.50055664 191.22827148 73.13208008 C188.7467323 84.75315849 186.20008536 96.33462564 183.24536133 107.84545898 C179.03068074 124.31681479 174.97680875 140.81297883 171.26831055 157.40551758 C168.07833731 171.60573176 164.81954778 185.78904986 161.22924805 199.89379883 C155.95623526 220.60094625 155.95623526 220.60094625 151.0612793 241.3996582 C150.86614746 242.26518311 150.67101562 243.13070801 150.4699707 244.02246094 C149.60587106 247.86986281 148.74714895 251.71842272 147.89331055 255.56811523 C147.12250507 259.03429444 146.34231328 262.49827124 145.5612793 265.9621582 C145.21117798 267.55664795 145.21117798 267.55664795 144.85400391 269.18334961 C140.44864165 288.6318228 140.44864165 288.6318228 134.6237793 294.2746582 C131.59583048 296.10768915 129.34618242 296.52671482 125.8269043 296.53344727 C124.87912109 296.53975159 123.93133789 296.54605591 122.95483398 296.55255127 C121.93808594 296.54850281 120.92133789 296.54445435 119.8737793 296.5402832 C118.82351563 296.54219666 117.77325195 296.54411011 116.69116211 296.54608154 C114.47208415 296.54744168 112.25299819 296.54375723 110.03393555 296.53540039 C106.63661838 296.52469865 103.23983001 296.5353017 99.8425293 296.5480957 C97.68627813 296.54677408 95.53002729 296.54421162 93.3737793 296.5402832 C92.35703125 296.54433167 91.3402832 296.54838013 90.29272461 296.55255127 C88.8710498 296.54309479 88.8710498 296.54309479 87.4206543 296.53344727 C86.17300293 296.53106049 86.17300293 296.53106049 84.90014648 296.52862549 C82.41399293 296.25125298 80.77556398 295.51979811 78.6237793 294.2746582 C78.6237793 293.6146582 78.6237793 292.9546582 78.6237793 292.2746582 C77.9637793 292.2746582 77.3037793 292.2746582 76.6237793 292.2746582 C73.29951222 286.13199078 71.22657257 280.11915138 69.3737793 273.3996582 C68.76748744 271.26113162 68.15934836 269.12312806 67.54956055 266.9855957 C67.23583496 265.883125 66.92210937 264.7806543 66.59887695 263.64477539 C64.98969016 258.08312931 63.27641062 252.55437927 61.5612793 247.0246582 C59.17864449 239.32463822 56.80946414 231.62160532 54.4987793 223.8996582 C54.2596582 223.10116455 54.02053711 222.3026709 53.77416992 221.47998047 C52.54271054 217.36239301 51.31767799 213.2429429 50.09643555 209.12231445 C47.85857041 201.59126975 45.59577177 194.08680956 43.0612793 186.6496582 C40.96553325 180.47624653 39.20149308 174.25475074 37.49853516 167.96557617 C36.18815076 163.17363511 34.73095554 158.47564872 33.1237793 153.7746582 C30.99967806 147.56166208 29.21424268 141.30255733 27.4987793 134.96606445 C26.18813337 130.17401529 24.73101317 125.47581727 23.1237793 120.7746582 C20.99967806 114.56166208 19.21424268 108.30255733 17.4987793 101.96606445 C16.18813337 97.17401529 14.73101317 92.47581727 13.1237793 87.7746582 C10.99967806 81.56166208 9.21424268 75.30255733 7.4987793 68.96606445 C6.18813337 64.17401529 4.73101317 59.47581727 3.1237793 54.7746582 C0.74481567 47.80183378 -1.2497209 40.75899663 -3.17700195 33.6496582 C-3.93172267 30.86750262 -4.7157237 28.09824304 -5.54418945 25.3371582 C-10.41689033 9.01273072 -10.41689033 9.01273072 -8.5715332 4.1574707 C-6.31756831 0.60710771 -3.93859483 0.02342527 0 0 Z " fill="#FDFDFD" transform="translate(321.376220703125,7.725341796875)"/>
<path d="M0 0 C4.67441807 2.1468953 8.93879057 5.05853452 13.23388672 7.86767578 C17.34091769 10.50085378 21.69778174 12.7070595 26 15 C27.65515625 15.90492188 27.65515625 15.90492188 29.34375 16.828125 C37.07108608 21.03568522 44.91337638 24.91634031 52.88305664 28.64379883 C57.9457919 31.01414187 62.95477533 33.46635771 67.9375 36 C80.74824928 42.47485776 93.89748094 48.22370996 107.19677734 53.61523438 C111.03331333 55.17357052 114.81173415 56.80432851 118.5625 58.5625 C124.71663468 61.40716044 131.05754616 63.71629324 137.42016602 66.04418945 C139.45564786 66.79832132 141.48641236 67.56518562 143.51538086 68.33666992 C152.99981196 71.94165499 162.54990963 75.26707808 172.1875 78.4375 C174.37516631 79.15994394 176.56260276 79.8830807 178.75001526 80.60629272 C180.18708617 81.08132828 181.62428924 81.55596421 183.06163025 82.03018188 C187.01330606 83.33557234 190.95635222 84.66233261 194.890625 86.01953125 C207.47227905 90.34685052 220.20614992 93.84971787 233.07470703 97.21972656 C235.56914146 97.88507562 238.04994209 98.57906974 240.52734375 99.3046875 C253.5914671 103.12946274 266.88555986 105.91316887 280.19078064 108.75083923 C284.11545516 109.5894115 288.03312354 110.45272437 291.9453125 111.34765625 C357.20115939 126.19935142 424.56237561 132.24048381 491.37963867 132.13037109 C494.86696456 132.12466886 498.35421416 132.12807347 501.84153748 132.133811 C549.60190193 132.20037966 596.8129687 128.2999294 644 121 C645.56065186 120.76047607 645.56065186 120.76047607 647.15283203 120.51611328 C660.12052488 118.504906 672.92196184 116.02240574 685.7265625 113.15625 C690.26009769 112.14698902 694.80403979 111.25803139 699.375 110.4375 C711.44312389 108.22418629 723.27761962 105.27073517 735.07568359 101.91967773 C739.71598086 100.60880614 744.3687487 99.40445619 749.05688477 98.27709961 C768.93681831 93.47945401 788.28713445 86.97921059 807.625 80.375 C808.42129822 80.10341064 809.21759644 79.83182129 810.0380249 79.55200195 C819.56163985 76.29721697 829.02515008 72.91755716 838.43188477 69.33862305 C842.04283236 67.9839309 845.66904158 66.70165269 849.3125 65.4375 C853.53773902 63.94285763 857.62315882 62.32574916 861.6875 60.4375 C880.44823109 51.73207999 880.44823109 51.73207999 890.25 55.125 C894.75799834 58.19863523 897.43429083 60.37001432 898.58984375 65.7421875 C899.02461497 71.73745377 898.3422886 75.39307177 894.375 80 C886.18625227 88 886.18625227 88 882 88 C882 88.66 882 89.32 882 90 C880.33862305 91.30932617 880.33862305 91.30932617 878.01171875 92.79296875 C876.74122681 93.61051636 876.74122681 93.61051636 875.44506836 94.44458008 C874.08007202 95.30732544 874.08007202 95.30732544 872.6875 96.1875 C871.77427979 96.77104248 870.86105957 97.35458496 869.92016602 97.95581055 C868.10536518 99.11478747 866.28890622 100.27117257 864.47070312 101.42480469 C862.41125299 102.7378059 860.36511324 104.06664294 858.328125 105.4140625 C857.37421875 106.04054688 856.4203125 106.66703125 855.4375 107.3125 C854.63183594 107.84488281 853.82617188 108.37726563 852.99609375 108.92578125 C851 110 851 110 848 110 C848 110.66 848 111.32 848 112 C830.08245645 121.82790635 811.96375067 131.14736401 793.46533203 139.83496094 C791.39400317 140.81380638 789.33312002 141.80938811 787.27734375 142.8203125 C778.67997296 146.98324994 769.85739061 150.56201001 761 154.125 C760.371008 154.37925751 759.74201599 154.63351501 759.09396362 154.89547729 C749.83422391 158.62929932 740.49462507 161.91179216 731 165 C729.21387992 165.60000301 727.42860676 166.20253838 725.64453125 166.80859375 C688.52510611 179.34970233 650.5982802 189.21395624 612 196 C611.08202637 196.16209961 610.16405273 196.32419922 609.21826172 196.49121094 C596.19317144 198.75817321 583.12508559 200.55953904 570 202.125 C569.33594147 202.20540527 568.67188293 202.28581055 567.98770142 202.36865234 C563.79016012 202.87302546 559.58969888 203.3320492 555.3833313 203.7565918 C553.76552917 203.92181696 552.14840178 204.09375973 550.5319519 204.27172852 C530.23294586 206.46680841 509.9077215 206.30800221 489.51733398 206.26074219 C484.56142708 206.24935631 479.60573513 206.25611821 474.64983559 206.26761818 C454.01193339 206.30834801 433.54546023 206.17722264 413 204 C411.42000846 203.84174489 409.84001199 203.68353906 408.26000977 203.52539062 C404.16739175 203.10249421 400.08425256 202.62245721 396 202.125 C395.29385559 202.04007294 394.58771118 201.95514587 393.86016846 201.86764526 C373.01538604 199.35549549 352.40891693 196.12331563 331.89404297 191.62792969 C329.08000356 191.01735863 326.26201488 190.43094154 323.44140625 189.8515625 C282.77723175 181.40966843 240.39569827 169.90725776 202.69140625 152.20703125 C199.74972233 150.88775646 196.77049016 149.7517199 193.75 148.625 C187.02565753 146.07766085 180.55914978 143.08895935 174.07910156 139.98876953 C171.88919546 138.94730409 169.69163961 137.92348453 167.4921875 136.90234375 C157.62950038 132.30644832 147.96249052 127.42343962 138.359375 122.30859375 C132.95784499 119.4341575 127.49236007 116.69684746 122 114 C122 113.34 122 112.68 122 112 C121.43667969 111.89171875 120.87335938 111.7834375 120.29296875 111.671875 C117.63505886 110.89306665 115.66046392 109.71700483 113.3125 108.25 C110.20184024 106.33574784 107.09207738 104.47894754 103.875 102.75 C88.28375207 94.16791486 73.62563556 83.86670596 59.00390625 73.7578125 C56.3775107 71.94311919 53.73982116 70.14725332 51.08984375 68.3671875 C50.17996704 67.75121704 50.17996704 67.75121704 49.25170898 67.12280273 C47.59764242 66.00357024 45.93956756 64.89026803 44.28125 63.77734375 C43.5284375 63.19082031 42.775625 62.60429687 42 62 C42 61.34 42 60.68 42 60 C41.236875 59.71125 40.47375 59.4225 39.6875 59.125 C37 58 37 58 34 56 C34 55.34 34 54.68 34 54 C33.46375 53.7525 32.9275 53.505 32.375 53.25 C29.4176018 51.69347463 26.70275949 49.96564327 24 48 C24 47.34 24 46.68 24 46 C23.46375 45.7525 22.9275 45.505 22.375 45.25 C19.4176018 43.69347463 16.70275949 41.96564327 14 40 C14 39.34 14 38.68 14 38 C13.44828125 37.7525 12.8965625 37.505 12.328125 37.25 C9.54863293 35.75765526 7.2185293 33.96327477 4.75 32 C3.85796875 31.29875 2.9659375 30.5975 2.046875 29.875 C1.37140625 29.25625 0.6959375 28.6375 0 28 C0 27.34 0 26.68 0 26 C-0.86238281 25.61134766 -0.86238281 25.61134766 -1.7421875 25.21484375 C-4.18369734 23.90115939 -6.04981183 22.39702947 -8.125 20.5625 C-8.80820313 19.96566406 -9.49140625 19.36882812 -10.1953125 18.75390625 C-13.41701095 15.62286165 -14.30905155 13.44807223 -14.375 9.0625 C-14.28182938 5.87140635 -14.12255602 4.23397059 -12.625 1.375 C-8.24287578 -0.9203984 -4.8225393 -1.1343505 0 0 Z " fill="#FF9900" transform="translate(14,394)"/>
<path d="M0 0 C3.31080156 0.00315754 6.62070487 -0.0203631 9.93139648 -0.0456543 C34.03905093 -0.11741603 62.73706732 3.09128349 82.51538086 18.31567383 C82.51538086 18.97567383 82.51538086 19.63567383 82.51538086 20.31567383 C83.24370117 20.55672852 83.97202148 20.7977832 84.72241211 21.04614258 C87.89438309 22.48794757 89.75777809 24.15816339 92.20288086 26.62817383 C93.35336914 27.76706055 93.35336914 27.76706055 94.52709961 28.92895508 C96.53014681 31.33339878 97.53814235 33.36305481 98.51538086 36.31567383 C99.17538086 36.31567383 99.83538086 36.31567383 100.51538086 36.31567383 C112.71963254 56.87332108 118.821869 77.14167986 118.80249023 101.22143555 C118.80853414 102.55860808 118.81546326 103.89577685 118.82319641 105.23294067 C118.837944 108.08487922 118.84679863 110.9367495 118.85090637 113.78872299 C118.85769882 118.31381753 118.87954343 122.838768 118.90344238 127.36380005 C118.95213402 136.97272392 118.984623 146.58167833 119.01538086 156.19067383 C119.04859846 166.5626686 119.08477756 176.93460593 119.13951159 187.30651295 C119.16261768 191.78905553 119.17653925 196.27149686 119.18300629 200.75409293 C119.18901668 203.5605939 119.20317281 206.36701437 119.21935081 209.17347336 C119.22786498 211.06100428 119.22682013 212.9485711 119.22529602 214.83612061 C119.30729377 226.36281881 120.08407808 238.15809099 124.26538086 249.00317383 C124.52416016 249.70667969 124.78293945 250.41018555 125.04956055 251.13500977 C127.08769588 256.53643719 129.50851145 261.70059699 132.21850586 266.80004883 C134.80180089 271.8110187 136.73322444 276.60832212 135.51538086 282.31567383 C132.89940249 286.78717615 130.36611316 289.49487962 126.05053711 292.33129883 C125.00317383 293.02481445 123.95581055 293.71833008 122.87670898 294.43286133 C121.7880957 295.13668945 120.69948242 295.84051758 119.57788086 296.56567383 C117.95076172 297.64461914 117.95076172 297.64461914 116.29077148 298.74536133 C103.50532569 307.13802028 103.50532569 307.13802028 96.51538086 306.31567383 C93.7417222 305.16207258 91.12543664 303.79956341 88.51538086 302.31567383 C88.51538086 301.65567383 88.51538086 300.99567383 88.51538086 300.31567383 C87.85538086 300.31567383 87.19538086 300.31567383 86.51538086 300.31567383 C86.51538086 299.65567383 86.51538086 298.99567383 86.51538086 298.31567383 C85.85538086 298.31567383 85.19538086 298.31567383 84.51538086 298.31567383 C80.51538086 292.90390912 80.51538086 292.90390912 80.51538086 290.31567383 C79.85538086 290.31567383 79.19538086 290.31567383 78.51538086 290.31567383 C74.51538086 283.69067383 74.51538086 283.69067383 74.51538086 280.31567383 C73.85538086 280.31567383 73.19538086 280.31567383 72.51538086 280.31567383 C70.86538086 276.68567383 69.21538086 273.05567383 67.51538086 269.31567383 C63.56339794 270.94245014 63.56339794 270.94245014 61.76538086 273.50317383 C58.20163973 277.95785023 54.00182146 282.4868603 48.51538086 284.31567383 C48.51538086 284.97567383 48.51538086 285.63567383 48.51538086 286.31567383 C43.10361615 290.31567383 43.10361615 290.31567383 40.51538086 290.31567383 C40.51538086 290.97567383 40.51538086 291.63567383 40.51538086 292.31567383 C34.97569669 296.28880797 28.70997419 299.48045611 22.51538086 302.31567383 C21.80381836 302.6430957 21.09225586 302.97051758 20.35913086 303.30786133 C4.45543712 310.14644964 -13.10112273 312.7079724 -30.29711914 312.62817383 C-31.51963379 312.62470947 -32.74214844 312.62124512 -34.00170898 312.61767578 C-43.1833461 312.5074864 -51.60213949 311.65087118 -60.48461914 309.31567383 C-61.34829102 309.12231445 -62.21196289 308.92895508 -63.10180664 308.72973633 C-72.2733894 306.41428757 -81.64727887 301.54056734 -89.48461914 296.31567383 C-89.48461914 295.65567383 -89.48461914 294.99567383 -89.48461914 294.31567383 C-90.22454102 294.0655957 -90.96446289 293.81551758 -91.72680664 293.55786133 C-94.7092925 292.21447535 -96.35296684 290.7858223 -98.60961914 288.44067383 C-99.60348633 287.42360352 -99.60348633 287.42360352 -100.61743164 286.38598633 C-105.48461914 280.989314 -105.48461914 280.989314 -105.48461914 278.31567383 C-106.14461914 278.31567383 -106.80461914 278.31567383 -107.48461914 278.31567383 C-111.73232501 272.9932472 -114.33469261 266.62780937 -116.73461914 260.31567383 C-116.98050781 259.67629883 -117.22639648 259.03692383 -117.47973633 258.37817383 C-121.25214407 248.05478491 -121.8574783 237.96040369 -121.85522461 227.05932617 C-121.85957283 224.71563597 -121.8959227 222.37387333 -121.93383789 220.03051758 C-122.03376099 206.82389847 -120.17727002 193.93571358 -113.85961914 182.12817383 C-113.52260986 181.47727783 -113.18560059 180.82638184 -112.83837891 180.15576172 C-107.6104275 170.42197785 -99.66591637 157.82992567 -89.54711914 152.87817383 C-88.86649414 152.69254883 -88.18586914 152.50692383 -87.48461914 152.31567383 C-87.48461914 151.65567383 -87.48461914 150.99567383 -87.48461914 150.31567383 C-76.93885182 140.88156859 -60.98705992 135.50870385 -47.48461914 132.31567383 C-46.69700195 132.11458008 -45.90938477 131.91348633 -45.09790039 131.70629883 C-18.99891028 125.69396603 8.86246871 127.90454871 35.01538086 132.19067383 C35.93254883 132.33988281 36.8497168 132.4890918 37.79467773 132.64282227 C46.1438785 134.09163674 54.31665443 136.1961608 62.51538086 138.31567383 C62.44580056 132.71426728 62.35750714 127.11355799 62.25292969 121.51269531 C62.21996902 119.6130354 62.19185045 117.71328433 62.16894531 115.81347656 C62.0336814 104.88587922 61.57476306 94.86752166 58.51538086 84.31567383 C58.09733453 82.58684019 57.6804452 80.85772581 57.26538086 79.12817383 C54.0543834 68.87960162 46.22418457 60.28266244 36.89038086 55.12817383 C35.44801646 54.48681714 33.98722505 53.88613693 32.51538086 53.31567383 C31.62334961 52.96633789 30.73131836 52.61700195 29.81225586 52.25708008 C-5.64613138 40.33572575 -49.31312219 49.62890311 -82.22680664 65.28051758 C-87.12825456 67.52772121 -92.04788168 69.04057216 -97.48461914 68.31567383 C-100.63687789 65.93018072 -101.78036357 64.13039149 -102.48461914 60.31567383 C-102.73558274 56.25652769 -102.71587047 52.1942924 -102.73461914 48.12817383 C-102.75524414 47.02924805 -102.77586914 45.93032227 -102.79711914 44.7980957 C-102.82973371 37.9612657 -102.03409358 32.66923249 -99.48461914 26.31567383 C-98.82461914 26.31567383 -98.16461914 26.31567383 -97.48461914 26.31567383 C-97.48461914 25.65567383 -97.48461914 24.99567383 -97.48461914 24.31567383 C-77.87201706 14.03992221 -57.28301169 6.53174444 -35.48461914 2.31567383 C-34.55955566 2.13206299 -33.63449219 1.94845215 -32.68139648 1.75927734 C-21.83362814 -0.09710913 -10.97693816 -0.02185512 0 0 Z M-41.48461914 178.31567383 C-41.48461914 178.97567383 -41.48461914 179.63567383 -41.48461914 180.31567383 C-42.24774414 180.60442383 -43.01086914 180.89317383 -43.79711914 181.19067383 C-46.63491222 182.27836396 -46.63491222 182.27836396 -49.48461914 184.31567383 C-49.48461914 184.97567383 -49.48461914 185.63567383 -49.48461914 186.31567383 C-50.14461914 186.31567383 -50.80461914 186.31567383 -51.48461914 186.31567383 C-54.44697609 189.94891071 -54.44697609 189.94891071 -55.48461914 194.31567383 C-56.14461914 194.31567383 -56.80461914 194.31567383 -57.48461914 194.31567383 C-64.7756371 210.95052062 -65.42000953 227.13622089 -59.48461914 244.31567383 C-54.34734786 255.07658528 -45.25906627 261.23828851 -34.48461914 265.50317383 C-13.57118708 271.16722834 10.48218119 265.65827113 29.51538086 256.31567383 C32.65617884 254.50625251 35.76306835 252.68572071 38.51538086 250.31567383 C38.51538086 249.65567383 38.51538086 248.99567383 38.51538086 248.31567383 C39.38936523 247.9212207 39.38936523 247.9212207 40.28100586 247.51879883 C51.03324091 241.7291338 57.52022748 228.61435354 61.01538086 217.37817383 C64.25338002 204.67831645 62.83350367 190.30487283 62.51538086 177.31567383 C57.87380062 175.94214498 53.2648849 174.7739071 48.51538086 173.81567383 C47.36038086 173.57848633 46.20538086 173.34129883 45.01538086 173.09692383 C32.54367023 170.85231321 20.449408 169.94273977 7.80053711 169.94506836 C5.15014545 169.94068996 2.50141842 169.9042016 -0.14868164 169.86645508 C-14.71988103 169.77101664 -28.34132724 171.6245434 -41.48461914 178.31567383 Z " fill="#FDFDFD" transform="translate(163.484619140625,-0.315673828125)"/>
<path d="M0 0 C1.40708221 0.00830841 1.40708221 0.00830841 2.84259033 0.01678467 C17.11362166 0.1153939 30.82086808 0.88367301 44.6875 4.5 C45.6062793 4.73025879 46.52505859 4.96051758 47.47167969 5.19775391 C79.55785332 13.35330878 79.55785332 13.35330878 88.6875 26.5 C90.83132368 30.78764737 89.91447503 36.48732398 89.92773438 41.24853516 C89.93743158 43.36010252 89.9684507 45.47069274 90 47.58203125 C90.0065312 48.92707756 90.01178121 50.27213083 90.015625 51.6171875 C90.0249707 52.84034668 90.03431641 54.06350586 90.04394531 55.32373047 C89.66163271 58.73050236 89.08910997 60.10347896 86.6875 62.5 C79.33402718 64.69125424 72.63309311 61.43678038 66.08520508 58.35131836 C61.04874703 56.007014 56.04383941 54.22131675 50.6875 52.75 C49.69447876 52.47119995 49.69447876 52.47119995 48.68139648 52.18676758 C46.36003681 51.57025546 44.03083686 51.02737381 41.6875 50.5 C40.55175537 50.23888428 39.41601074 49.97776855 38.24584961 49.70874023 C28.36285544 47.62885766 18.84055525 47.00166081 8.75170898 47.05395508 C6.25486046 47.0624834 3.76029788 47.0335312 1.26367188 47.00195312 C-13.07284058 46.93875824 -26.74981606 48.61105239 -39.2109375 56.23046875 C-41.3125 57.5 -41.3125 57.5 -44.3125 58.5 C-44.3125 59.16 -44.3125 59.82 -44.3125 60.5 C-44.9725 60.5 -45.6325 60.5 -46.3125 60.5 C-46.3125 61.16 -46.3125 61.82 -46.3125 62.5 C-46.9725 62.5 -47.6325 62.5 -48.3125 62.5 C-48.580625 63.325 -48.84875 64.15 -49.125 65 C-50.3125 68.5 -50.3125 68.5 -51.9375 72 C-55.15830946 80.62185918 -54.16191535 90.14843911 -50.48046875 98.4140625 C-49.33403821 100.57581641 -49.33403821 100.57581641 -47.67578125 102.6484375 C-46.3125 104.5 -46.3125 104.5 -46.3125 106.5 C-45.6525 106.5 -44.9925 106.5 -44.3125 106.5 C-44.3125 107.16 -44.3125 107.82 -44.3125 108.5 C-43.631875 108.726875 -42.95125 108.95375 -42.25 109.1875 C-39.3125 110.5 -39.3125 110.5 -36.375 112.75 C-26.06423645 120.27196572 -12.42779446 123.59682573 -0.41983032 127.42156982 C2.43187778 128.33063138 5.28036229 129.24921947 8.12817383 130.17041016 C15.09938247 132.42406561 22.07324044 134.66935658 29.0546875 136.89111328 C42.49986662 141.17220842 55.37926034 145.53168792 67.6875 152.5 C68.73808594 153.08136719 69.78867187 153.66273438 70.87109375 154.26171875 C75.85369646 157.11583098 75.85369646 157.11583098 77.6875 158.5 C77.6875 159.16 77.6875 159.82 77.6875 160.5 C78.25984375 160.7475 78.8321875 160.995 79.421875 161.25 C82.03760611 162.69316199 83.83523456 164.38216222 85.9375 166.5 C86.99710938 167.551875 86.99710938 167.551875 88.078125 168.625 C89.6875 170.5 89.6875 170.5 89.6875 172.5 C90.3475 172.5 91.0075 172.5 91.6875 172.5 C101.08363287 188.32746653 101.08363287 188.32746653 103.6875 196.5 C104.04328125 197.59441406 104.3990625 198.68882812 104.765625 199.81640625 C106.20489795 205.76189182 106.05951584 211.86917589 106.05810547 217.95141602 C106.06244114 220.03422247 106.09873534 222.11483773 106.13671875 224.19726562 C106.24090784 236.50168703 103.93560677 247.81632948 98.4375 258.9375 C97.91671875 260.00871094 97.3959375 261.07992188 96.859375 262.18359375 C96.47265625 262.94800781 96.0859375 263.71242188 95.6875 264.5 C95.0275 264.5 94.3675 264.5 93.6875 264.5 C93.543125 265.11875 93.39875 265.7375 93.25 266.375 C92.6875 268.5 92.6875 268.5 91.6875 270.5 C91.0275 270.5 90.3675 270.5 89.6875 270.5 C89.44 271.221875 89.1925 271.94375 88.9375 272.6875 C87.56480408 275.77606582 85.96396704 278.01011418 83.6875 280.5 C83.0275 280.5 82.3675 280.5 81.6875 280.5 C81.6875 281.16 81.6875 281.82 81.6875 282.5 C81.0275 282.5 80.3675 282.5 79.6875 282.5 C79.6875 283.16 79.6875 283.82 79.6875 284.5 C78.0078125 286.0078125 78.0078125 286.0078125 75.8125 287.625 C75.09320312 288.16382813 74.37390625 288.70265625 73.6328125 289.2578125 C71.6875 290.5 71.6875 290.5 69.6875 290.5 C69.6875 291.16 69.6875 291.82 69.6875 292.5 C67.78125 293.8671875 67.78125 293.8671875 65.1875 295.375 C63.93453125 296.11363281 63.93453125 296.11363281 62.65625 296.8671875 C50.67797582 303.4552383 38.24980309 307.95791603 24.875 310.8125 C24.13596436 310.97169922 23.39692871 311.13089844 22.63549805 311.29492188 C11.40165995 313.54094741 0.04518546 313.69526499 -11.375 313.6875 C-12.05403381 313.68722809 -12.73306763 313.68695618 -13.43267822 313.68667603 C-24.50022156 313.66637367 -35.35877757 313.14460259 -46.3125 311.5 C-47.0034375 311.40348145 -47.694375 311.30696289 -48.40625 311.20751953 C-68.34950928 308.37509302 -88.88905026 302.77762984 -106.3125 292.5 C-106.3125 291.84 -106.3125 291.18 -106.3125 290.5 C-106.9725 290.5 -107.6325 290.5 -108.3125 290.5 C-108.3125 289.84 -108.3125 289.18 -108.3125 288.5 C-108.9725 288.5 -109.6325 288.5 -110.3125 288.5 C-113.6397882 280.83277066 -114.52290272 275.07717466 -114.5625 266.6875 C-114.583125 265.60662109 -114.60375 264.52574219 -114.625 263.41210938 C-114.67521334 253.18741859 -114.67521334 253.18741859 -111.3125 248.5 C-107.13681635 246.36954916 -104.15432489 246.29025945 -99.75 247.5 C-95.70421431 248.87690158 -91.83964057 250.57464891 -87.9375 252.3125 C-74.04354661 258.38355355 -59.3020002 262.31220501 -44.3125 264.5 C-43.62542969 264.60296387 -42.93835938 264.70592773 -42.23046875 264.81201172 C-15.14231947 268.73038432 11.18729267 267.59171384 35.6875 254.5 C37.01860372 253.82889262 38.35103688 253.16037001 39.6875 252.5 C39.6875 251.84 39.6875 251.18 39.6875 250.5 C40.3475 250.5 41.0075 250.5 41.6875 250.5 C41.96335937 249.76007813 42.23921875 249.02015625 42.5234375 248.2578125 C43.6875 245.5 43.6875 245.5 44.9765625 243.4921875 C50.07660956 235.40965677 50.04033186 225.7429635 48.6875 216.5 C47.43971299 212.77815255 45.78410459 209.78717648 43.6875 206.5 C43.6875 205.84 43.6875 205.18 43.6875 204.5 C43.0275 204.5 42.3675 204.5 41.6875 204.5 C41.6875 203.84 41.6875 203.18 41.6875 202.5 C41.0275 202.5 40.3675 202.5 39.6875 202.5 C39.6875 201.84 39.6875 201.18 39.6875 200.5 C38.6975 200.1596875 38.6975 200.1596875 37.6875 199.8125 C35.25790168 198.74955073 33.47373502 197.71756352 31.3125 196.25 C15.98805615 186.5520586 -3.99978003 181.62809971 -21.375 177 C-40.88189398 171.76366902 -58.83283913 164.57755958 -76.3125 154.5 C-76.3125 153.84 -76.3125 153.18 -76.3125 152.5 C-76.993125 152.29375 -77.67375 152.0875 -78.375 151.875 C-85.24200109 148.66065906 -90.37535398 142.90327045 -94.3125 136.5 C-94.3125 135.84 -94.3125 135.18 -94.3125 134.5 C-94.9725 134.5 -95.6325 134.5 -96.3125 134.5 C-96.9725 132.52 -97.6325 130.54 -98.3125 128.5 C-98.9725 128.5 -99.6325 128.5 -100.3125 128.5 C-107.22683102 115.65909954 -110.7135287 102.25111285 -110.625 87.6875 C-110.62008545 86.72336182 -110.6151709 85.75922363 -110.61010742 84.76586914 C-110.48853887 77.34395331 -109.6468061 70.57821851 -107.3125 63.5 C-106.80203125 61.89125 -106.80203125 61.89125 -106.28125 60.25 C-103.48793745 52.24753701 -99.69127772 45.08989323 -94.3125 38.5 C-93.6525 38.5 -92.9925 38.5 -92.3125 38.5 C-92.085625 37.94828125 -91.85875 37.3965625 -91.625 36.828125 C-89.92524074 33.81307583 -87.76445184 31.68769631 -85.3125 29.25 C-83.9821875 27.91195313 -83.9821875 27.91195313 -82.625 26.546875 C-80.3125 24.5 -80.3125 24.5 -78.3125 24.5 C-78.3125 23.84 -78.3125 23.18 -78.3125 22.5 C-76.44921875 20.9921875 -76.44921875 20.9921875 -74 19.375 C-73.19949219 18.83617188 -72.39898438 18.29734375 -71.57421875 17.7421875 C-69.3125 16.5 -69.3125 16.5 -66.3125 16.5 C-66.3125 15.84 -66.3125 15.18 -66.3125 14.5 C-45.29980189 3.66678675 -23.50832179 -0.27387014 0 0 Z " fill="#FDFDFD" transform="translate(852.3125,-0.49999999999999994)"/>
<path d="M0 0 C0.75651855 0.13422363 1.51303711 0.26844727 2.29248047 0.40673828 C25.99964503 4.77830651 25.99964503 4.77830651 33 13 C35.00764758 17.04083889 35.28068076 20.44858809 35.3359375 24.93359375 C35.34431641 25.59937943 35.35269531 26.2651651 35.36132812 26.9511261 C35.38089434 29.11349103 35.38089984 31.27506098 35.375 33.4375 C35.37445618 34.17786499 35.37391235 34.91822998 35.37335205 35.68103027 C35.33013171 48.48047477 34.15541575 60.55844063 31 73 C30.78569336 73.86447754 30.57138672 74.72895508 30.35058594 75.61962891 C25.46415611 94.91995983 18.46899088 113.48469913 9 131 C8.68063477 131.5986084 8.36126953 132.1972168 8.03222656 132.81396484 C3.62259282 141.02662788 -1.38605616 148.63063781 -6.8984375 156.13671875 C-8.30973023 158.05953952 -9.67695144 160.01542715 -11 162 C-11.66 162 -12.32 162 -13 162 C-13.39638672 162.88316895 -13.39638672 162.88316895 -13.80078125 163.78417969 C-15.04368944 166.08072584 -16.35006481 167.60833166 -18.1875 169.453125 C-18.80367187 170.071875 -19.41984375 170.690625 -20.0546875 171.328125 C-20.69664062 171.96234375 -21.33859375 172.5965625 -22 173.25 C-22.64195312 173.8996875 -23.28390625 174.549375 -23.9453125 175.21875 C-24.56148437 175.83234375 -25.17765625 176.4459375 -25.8125 177.078125 C-26.37582031 177.63918945 -26.93914062 178.20025391 -27.51953125 178.77832031 C-29 180 -29 180 -31 180 C-31 180.66 -31 181.32 -31 182 C-34.91511603 184.61007735 -38.4519666 184.22006613 -43 184 C-43.66 183.67 -44.32 183.34 -45 183 C-47.14092894 176.13138823 -45.26526135 170.73755856 -42.4375 164.4375 C-41.68237203 162.6528602 -40.92847671 160.86769836 -40.17578125 159.08203125 C-39.80146973 158.21143066 -39.4271582 157.34083008 -39.04150391 156.44384766 C-29.44280388 133.9208783 -21.69532984 109.79535389 -16 86 C-15.80712402 85.19788086 -15.61424805 84.39576172 -15.41552734 83.56933594 C-14.02027636 77.27020639 -13.63384834 71.19159188 -13.625 64.75 C-13.60050781 63.79609375 -13.57601562 62.8421875 -13.55078125 61.859375 C-13.52649431 56.03050852 -14.05226252 52.58906667 -18 48 C-18.69222656 47.13568359 -18.69222656 47.13568359 -19.3984375 46.25390625 C-41.26934507 29.13058593 -91.69543826 39.21984291 -116.625 42.05859375 C-117.43715973 42.15099335 -118.24931946 42.24339294 -119.08609009 42.33859253 C-123.06692075 42.79574061 -127.04498933 43.26924372 -131.02099609 43.76660156 C-132.48014298 43.9420594 -133.9392901 44.11751522 -135.3984375 44.29296875 C-136.67380371 44.4530542 -137.94916992 44.61313965 -139.26318359 44.77807617 C-143.43760176 45.0259885 -146.88950847 44.75363594 -151 44 C-153 42 -153 42 -153.5 38.8125 C-152.72320709 32.88945405 -149.59739522 30.049227 -145.01953125 26.4375 C-139.05265062 22.26394415 -132.5820145 19.07855489 -126 16 C-124.95199219 15.505 -123.90398438 15.01 -122.82421875 14.5 C-106.30149112 7.04438612 -88.85654915 2.80212619 -71 0 C-69.89930176 -0.17789062 -69.89930176 -0.17789062 -68.77636719 -0.359375 C-46.8488911 -3.7405737 -21.85956064 -3.93081648 0 0 Z " fill="#FF9900" transform="translate(965,376)"/>
<path d="M0 0 C0.66 0.33 1.32 0.66 2 1 C-2.95 5.95 -7.9 10.9 -13 16 C-13.66 15.67 -14.32 15.34 -15 15 C-13.25420935 13.0585604 -11.50362507 11.12184216 -9.75 9.1875 C-9.25886719 8.64029297 -8.76773438 8.09308594 -8.26171875 7.52929688 C-5.68270045 4.69237675 -3.19370806 2.16715904 0 0 Z " fill="#DFE0E3" transform="translate(74,152)"/>
</svg>
