<?xml version="1.0" encoding="UTF-8"?>
<svg version="1.1" xmlns="http://www.w3.org/2000/svg" width="268" height="318">
<path d="M0 0 C0.1952124 0.53665283 0.3904248 1.07330566 0.59155273 1.6262207 C4.28541792 11.71393196 8.12988455 21.67052843 12.75 31.375 C13.11407959 32.13981689 13.47815918 32.90463379 13.85327148 33.69262695 C15.5417819 37.17804884 17.30503755 40.57348335 19.265625 43.9140625 C21 47 21 47 21 49 C21.84965332 49.1131958 22.69930664 49.2263916 23.57470703 49.34301758 C65.23301845 55.06839138 116.8143753 65.48469989 144.33447266 100.70800781 C152.52418286 111.57254859 152.52418286 111.57254859 154 116 C152.84443604 116.2019397 152.84443604 116.2019397 151.66552734 116.40795898 C121.96948428 121.6534325 92.63820965 128.31599498 63.6418457 136.61279297 C62.53929443 136.92748535 61.43674316 137.24217773 60.30078125 137.56640625 C59.34341064 137.84427979 58.38604004 138.12215332 57.3996582 138.40844727 C55 139 55 139 52 139 C52.14074951 139.57073242 52.28149902 140.14146484 52.42651367 140.72949219 C54.46913264 150.19629743 54.35317051 159.61521279 54.3125 169.25 C54.31067719 170.13917114 54.30885437 171.02834229 54.30697632 171.94445801 C54.16619582 212.70751917 43.09571593 249.59018544 23 285 C-17.66208774 284.1112112 -67.15107108 278.60690067 -97.99609375 249.08984375 C-103.07253645 243.53234164 -106.63420684 237.00979055 -107.15625 229.4140625 C-106.2051284 214.71923379 -94.26869786 203.32404214 -84 194 C-81.19049999 191.62244677 -78.34160595 189.3100341 -75.4609375 187.01953125 C-72.66738112 184.72704133 -70.16834044 182.26328937 -67.6640625 179.6640625 C-65.91570856 177.91570856 -64.07980729 176.34074438 -62.1875 174.75 C-43.6027436 158.59089318 -26.32976019 134.95764177 -23 110 C-21.85120325 89.67513445 -26.49709515 73.48963015 -40 58 C-44.3676826 53.38501599 -48.96884194 48.99354003 -53.53735352 44.57910156 C-55.08206066 43.08255531 -56.61752321 41.57698638 -58.15234375 40.0703125 C-59.05976318 39.19133301 -59.96718262 38.31235352 -60.90209961 37.40673828 C-62.89361728 35.12204362 -63.84813426 34.00034215 -64 31 C-54.6550634 16.64177977 -30.1091296 9.61250903 -14.9375 3.875 C-13.90858643 3.4845752 -12.87967285 3.09415039 -11.81958008 2.69189453 C-4.51257241 0 -4.51257241 0 0 0 Z M-8.72265625 5.484375 C-9.90150391 6.00773438 -11.08035156 6.53109375 -12.29492188 7.0703125 C-12.91423584 7.34649414 -13.5335498 7.62267578 -14.17163086 7.90722656 C-16.02922866 8.73517074 -17.88851724 9.55921803 -19.74804688 10.3828125 C-25.90650704 13.12287617 -32.0055834 15.91672954 -38 19 C-38 19.33 -38 19.66 -38 20 C-24.47 22.31 -10.94 24.62 3 27 C1.82272904 21.1136452 0.6402397 15.24111135 -0.625 9.375 C-1.01558594 7.56128906 -1.01558594 7.56128906 -1.4140625 5.7109375 C-1.60742188 4.81632813 -1.80078125 3.92171875 -2 3 C-4.24436005 3 -6.74190843 4.60496632 -8.72265625 5.484375 Z M-40 24 C-39.30777344 24.68578125 -38.61554688 25.3715625 -37.90234375 26.078125 C-35.85832721 28.11854418 -33.86074119 30.19609337 -31.87890625 32.296875 C-30.77359954 33.44807227 -29.66812854 34.59911182 -28.5625 35.75 C-28.01529297 36.33910156 -27.46808594 36.92820312 -26.90429688 37.53515625 C-24.45786485 40.05396792 -22.46644407 41.79217838 -19.23828125 43.23046875 C-14.00917265 42.85831265 -10.07681299 40.18849811 -5.625 37.5625 C-4.23474609 36.76875977 -4.23474609 36.76875977 -2.81640625 35.95898438 C-0.53535255 34.6538454 1.73578839 33.33407475 4 32 C4 31.67 4 31.34 4 31 C3.05125 30.91363281 2.1025 30.82726562 1.125 30.73828125 C-9.09699454 29.71327004 -19.02815564 27.87432047 -29.0625 25.67700195 C-30.04992187 25.46132568 -31.03734375 25.24564941 -32.0546875 25.0234375 C-32.93624512 24.82669434 -33.81780273 24.62995117 -34.72607422 24.42724609 C-37.10578223 23.90767098 -37.10578223 23.90767098 -40 24 Z M-45 24 C-46.29854721 25.07507629 -47.58858361 26.16043736 -48.875 27.25 C-49.59429687 27.85328125 -50.31359375 28.4565625 -51.0546875 29.078125 C-52.97052118 30.97087634 -53.96449045 32.53657727 -55 35 C-43.70881431 39.37073077 -43.70881431 39.37073077 -32 39 C-33.79057247 36.87406947 -35.58240553 34.74922444 -37.375 32.625 C-37.88289063 32.02171875 -38.39078125 31.4184375 -38.9140625 30.796875 C-39.40390625 30.21679688 -39.89375 29.63671875 -40.3984375 29.0390625 C-40.84880371 28.50490723 -41.29916992 27.97075195 -41.76318359 27.42041016 C-42.79399612 26.23658322 -43.89004039 25.10995961 -45 24 Z M1.1875 37.8125 C-1.84120914 40.26857285 -4.87886075 42.65914556 -8 45 C-1.07 45.99 5.86 46.98 13 48 C11.7290827 44.1872481 10.66918099 41.09374991 8.875 37.625 C8.52179688 36.93664063 8.16859375 36.24828125 7.8046875 35.5390625 C7.53914063 35.03117187 7.27359375 34.52328125 7 34 C4.8786049 34 2.71940698 36.5676854 1.1875 37.8125 Z M-47 43 C-45.00659143 45.58404814 -42.99697601 48.00302399 -40.6875 50.3125 C-37.82715925 53.17284075 -35.19117666 56.1685468 -32.55078125 59.23046875 C-31.41306678 60.52866688 -30.2205967 61.7794033 -29 63 C-29.57917944 57.5557133 -30.20113691 51.79257378 -33 47 C-37.07179137 44.2254165 -42.19323214 43.60084598 -47 43 Z M-29 47 C-27.15070469 52.54788593 -25.28829443 58.06231549 -23.3125 63.5625 C-22.87550781 64.78066406 -22.43851562 65.99882813 -21.98828125 67.25390625 C-21.66214844 68.16011719 -21.33601563 69.06632812 -21 70 C-19.700625 68.7934375 -19.700625 68.7934375 -18.375 67.5625 C-14.15617268 63.91778114 -9.5186893 61.01647167 -4.80029297 58.07250977 C-2.31128334 56.51475531 -0.08419816 55.08419816 2 53 C-8.23 51.02 -18.46 49.04 -29 47 Z M-1.125 60.0625 C-1.70596436 60.56112549 -2.28692871 61.05975098 -2.88549805 61.57348633 C-4.59517513 63.04350014 -6.2986596 64.52035096 -8 66 C-8.87011719 66.75539063 -9.74023438 67.51078125 -10.63671875 68.2890625 C-12.42975528 69.85354321 -14.21819509 71.42275275 -16 73 C-13.71332192 75.28667808 -12.39617935 75.62311399 -9.31640625 76.47265625 C-8.38892578 76.73240234 -7.46144531 76.99214844 -6.50585938 77.25976562 C-5.53455078 77.52466797 -4.56324219 77.78957031 -3.5625 78.0625 C-1.64702306 78.59464782 0.26834628 79.12718315 2.18359375 79.66015625 C3.03493896 79.89355713 3.88628418 80.12695801 4.76342773 80.36743164 C6.52279942 80.86503365 8.26544044 81.42181348 10 82 C10.38408795 72.51160514 9.55403863 64.15197174 7 55 C3.57383098 55 1.36019317 57.90184341 -1.125 60.0625 Z M11 55 C11.27714844 56.134375 11.55429688 57.26875 11.83984375 58.4375 C12.20595709 59.95827848 12.57182963 61.47911495 12.9375 63 C13.11990234 63.74378906 13.30230469 64.48757812 13.49023438 65.25390625 C14.66377209 70.1614276 15.45834324 74.98254788 16 80 C16.57363281 79.68289062 17.14726562 79.36578125 17.73828125 79.0390625 C24.95570749 75.07440651 32.23391468 71.23374106 39.53637695 67.42822266 C40.32874756 67.01362793 41.12111816 66.5990332 41.9375 66.171875 C42.64777344 65.8015918 43.35804688 65.43130859 44.08984375 65.04980469 C45.77837552 64.12180282 47.39685542 63.06876305 49 62 C39.88649969 59.90016426 30.77353116 57.87878603 21.5625 56.25 C20.84779541 56.12262451 20.13309082 55.99524902 19.39672852 55.86401367 C16.55385524 55.37317518 13.8912207 55 11 55 Z M59 64 C58.75765625 65.18335937 58.5153125 66.36671875 58.265625 67.5859375 C56.62317594 75.39831089 55.03610262 82.93540343 51.734375 90.25 C50.87101582 91.99105944 50.87101582 91.99105944 51 94 C54.99061967 93.30199079 58.69228538 92.16578259 62.5234375 90.85546875 C63.80596088 90.42113921 65.088514 89.98689746 66.37109375 89.55273438 C68.35654296 88.87661498 70.34145822 88.19898984 72.32568359 87.51928711 C81.79902698 84.28066997 91.29279998 81.46106581 101 79 C96.57902124 76.05268082 91.71134495 74.48060035 86.75 72.625 C85.67492187 72.221604 84.59984375 71.81820801 83.4921875 71.40258789 C75.42496019 68.42271953 67.38284225 65.92106801 59 64 Z M54 64 C44.85251226 69.21057571 35.70852556 74.42976367 26.8125 80.0625 C26.21937012 80.43173584 25.62624023 80.80097168 25.01513672 81.18139648 C23.63939945 82.0653253 22.31305305 83.02538476 21 84 C21 84.66 21 85.32 21 86 C22.18078125 86.55429688 23.3615625 87.10859375 24.578125 87.6796875 C26.13542874 88.41143263 27.69271974 89.14320489 29.25 89.875 C30.02730469 90.23980469 30.80460938 90.60460937 31.60546875 90.98046875 C32.35957031 91.33496094 33.11367187 91.68945312 33.890625 92.0546875 C34.58188477 92.37937012 35.27314453 92.70405273 35.98535156 93.03857422 C38.00299865 94.00143101 40.00358243 94.99396213 42 96 C50.1528128 81.67395079 50.1528128 81.67395079 55 66 C54.505 65.01 54.505 65.01 54 64 Z M-18 82 C-17.67 90.58 -17.34 99.16 -17 108 C-10.77777949 103.4759634 -10.77777949 103.4759634 -5.375 98.4375 C-2.41457099 95.37498723 0.68256268 92.67013248 4 90 C3.19040558 87.82839503 3.19040558 87.82839503 1.06640625 87.22216797 C-0.17302734 86.86082764 -0.17302734 86.86082764 -1.4375 86.4921875 C-2.77941406 86.09580078 -2.77941406 86.09580078 -4.1484375 85.69140625 C-5.08945313 85.42199219 -6.03046875 85.15257813 -7 84.875 C-7.94101563 84.59785156 -8.88203125 84.32070312 -9.8515625 84.03515625 C-13.85965003 82.64095387 -13.85965003 82.64095387 -18 82 Z M95.84765625 84.90625 C93.98306763 85.52209961 93.98306763 85.52209961 92.08081055 86.15039062 C90.7411502 86.59959443 89.40171734 87.04947719 88.0625 87.5 C87.05613998 87.83680786 87.05613998 87.83680786 86.02944946 88.18041992 C77.34034349 91.09458002 68.70883629 94.12053274 60.1875 97.5 C59.35935791 97.82548828 58.53121582 98.15097656 57.67797852 98.48632812 C53.61878386 99.87607659 53.61878386 99.87607659 51 103 C51.67804688 103.49886719 52.35609375 103.99773437 53.0546875 104.51171875 C60.8118667 110.49613539 66.34632428 117.06523169 72 125 C80.06530342 117.10509031 86.93892151 108.17860623 93.8125 99.25 C94.35132813 98.55358398 94.89015625 97.85716797 95.4453125 97.13964844 C98.92084685 92.58825079 102.05322656 87.90992064 105 83 C101.54733092 83 99.12838943 83.82224355 95.84765625 84.90625 Z M110 83 C109.74420166 83.48766846 109.48840332 83.97533691 109.22485352 84.4777832 C101.50787494 99.07454531 92.91955444 110.52836201 81 122 C84.59996218 123.24816599 87.1491465 122.74961744 90.828125 121.92578125 C92.00616699 121.67199707 93.18420898 121.41821289 94.39794922 121.15673828 C95.66912598 120.87813965 96.94030273 120.59954102 98.25 120.3125 C109.7379077 117.86683006 121.21274607 116.01510285 132.875 114.625 C133.58756958 114.5400528 134.30013916 114.45510559 135.03430176 114.36758423 C139.02116752 113.89616039 143.009651 113.44090942 147 113 C146.06176272 111.90055942 145.12282107 110.80171992 144.18359375 109.703125 C143.66079834 109.09114258 143.13800293 108.47916016 142.59936523 107.84863281 C137.77577156 102.27326244 132.54257377 97.75360867 126.625 93.375 C126.01277588 92.91963867 125.40055176 92.46427734 124.76977539 91.99511719 C120.06152404 88.57836749 115.1328577 85.73074514 110 83 Z M14 93 C13.67386719 94.08539063 13.34773438 95.17078125 13.01171875 96.2890625 C12.57059094 97.73446001 12.12916904 99.17976778 11.6875 100.625 C11.47416016 101.33785156 11.26082031 102.05070312 11.04101562 102.78515625 C9.99342337 106.19374001 8.89653407 109.20319495 7.26953125 112.3984375 C6.85058594 113.25695312 6.43164062 114.11546875 6 115 C6.33 115.66 6.66 116.32 7 117 C10.96144211 114.88075764 14.91860146 112.75364121 18.875 110.625 C20.00292969 110.02171875 21.13085938 109.4184375 22.29296875 108.796875 C23.36933594 108.21679688 24.44570312 107.63671875 25.5546875 107.0390625 C26.54968262 106.50490723 27.54467773 105.97075195 28.56982422 105.42041016 C31.07525251 104.09385416 31.07525251 104.09385416 33 102 C30.2118978 100.4933028 27.41896042 98.99580196 24.625 97.5 C23.8309375 97.07074219 23.036875 96.64148438 22.21875 96.19921875 C21.45820313 95.79316406 20.69765625 95.38710937 19.9140625 94.96875 C19.2123291 94.59169922 18.5105957 94.21464844 17.78759766 93.82617188 C16.02563289 92.86015672 16.02563289 92.86015672 14 93 Z M1.734375 98.66796875 C1.09113281 99.23193359 0.44789062 99.79589844 -0.21484375 100.37695312 C-0.88644531 100.97443359 -1.55804688 101.57191406 -2.25 102.1875 C-3.56724783 103.34817908 -4.88495055 104.50834213 -6.203125 105.66796875 C-6.83927734 106.23177246 -7.47542969 106.79557617 -8.13085938 107.37646484 C-9.88234755 108.8978071 -11.67301891 110.35180281 -13.484375 111.80078125 C-14.31453125 112.52652344 -15.1446875 113.25226563 -16 114 C-16 114.66 -16 115.32 -16 116 C-14.34482963 117.26027321 -14.34482963 117.26027321 -12.25 118.4375 C-9.35894242 120.1453655 -6.65856393 121.94619949 -4 124 C-2.52577715 121.02844879 -1.07370445 118.04656454 0.375 115.0625 C0.7875 114.23169922 1.2 113.40089844 1.625 112.54492188 C4.27051209 107.06188472 5.89972563 101.99105441 7 96 C4.33240069 96 3.71435757 96.9166362 1.734375 98.66796875 Z M43 108 C41.30132044 110.10514931 39.64371511 112.22751691 38 114.375 C33.86009009 119.71976365 29.57514574 124.84130766 24.99609375 129.8203125 C23.19933073 131.78233553 21.4649022 133.77905363 19.75 135.8125 C17.30207881 138.69803839 14.71496096 141.36489083 12 144 C20.78251059 142.29707311 29.10627683 139.36752033 37.54541016 136.46435547 C39.45859143 135.80805855 41.37323908 135.15635498 43.2890625 134.5078125 C43.91621155 134.29505676 44.5433606 134.08230103 45.18951416 133.86309814 C51.10462369 131.89391641 57.10576937 130.36186505 63.16162109 128.89013672 C64.09828613 128.5963916 65.03495117 128.30264648 66 128 C66.33 127.34 66.66 126.68 67 126 C55.80026716 115.10780443 55.80026716 115.10780443 43 108 Z M29 112 C26.28715064 113.16307394 26.28715064 113.16307394 23.22265625 114.89453125 C22.06958984 115.52037109 20.91652344 116.14621094 19.72851562 116.79101562 C18.50648328 117.46479454 17.28447837 118.1386232 16.0625 118.8125 C14.84478321 119.47531197 13.6266885 120.13743014 12.40820312 120.79882812 C6.09479407 124.21686939 6.09479407 124.21686939 0 128 C0.64844086 132.19283118 1.51216646 136.26499921 2.5625 140.375 C2.83191406 141.43460938 3.10132812 142.49421875 3.37890625 143.5859375 C3.58386719 144.38257813 3.78882812 145.17921875 4 146 C15.12425627 137.49992726 22.81155912 124.20905039 31 113 C30.34 112.67 29.68 112.34 29 112 Z M-21 124 C-21.81604999 125.9151579 -22.62770632 127.83218834 -23.4375 129.75 C-23.88996094 130.81734375 -24.34242187 131.8846875 -24.80859375 132.984375 C-25.73979553 135.3413841 -26.4784072 137.52992835 -27 140 C-23.47821603 137.92500296 -20.05840937 135.74969413 -16.6875 133.4375 C-15.80449219 132.83808594 -14.92148438 132.23867187 -14.01171875 131.62109375 C-13.34785156 131.08613281 -12.68398437 130.55117187 -12 130 C-12 129.34 -12 128.68 -12 128 C-13.670625 127.01 -13.670625 127.01 -15.375 126 C-16.00148438 125.62875 -16.62796875 125.2575 -17.2734375 124.875 C-18.97472667 123.84931652 -18.97472667 123.84931652 -21 124 Z M-7 135 C-7.49886719 135.65484375 -7.99773437 136.3096875 -8.51171875 136.984375 C-13.86878427 143.79371501 -19.63947823 149.6055148 -26.08203125 155.37109375 C-28.46632134 157.5191891 -30.75900925 159.70474797 -33 162 C-27.04825887 161.0151845 -21.69927283 158.60824178 -16.14208984 156.3347168 C-14.24512233 155.56050928 -12.34354664 154.79850466 -10.44140625 154.03710938 C-8.65283203 153.30911133 -8.65283203 153.30911133 -6.828125 152.56640625 C-5.7340332 152.12240479 -4.63994141 151.67840332 -3.51269531 151.22094727 C-0.87302371 150.25357133 -0.87302371 150.25357133 0 148 C-0.65793258 145.37022656 -0.65793258 145.37022656 -1.75 142.5 C-2.09546875 141.5203125 -2.4409375 140.540625 -2.796875 139.53125 C-3.86931284 136.71636597 -3.86931284 136.71636597 -7 135 Z M-19 140 C-32.49330198 148.40220023 -32.49330198 148.40220023 -43 160 C-43 160.66 -43 161.32 -43 162 C-38.10699365 160.47670557 -34.89265609 157.63827677 -31.125 154.3125 C-30.50802246 153.77592773 -29.89104492 153.23935547 -29.25537109 152.68652344 C-24.99395209 148.95285872 -20.91346684 145.0998224 -17 141 C-17.66 140.67 -18.32 140.34 -19 140 Z M37.55078125 143.3125 C36.27944336 143.71855469 36.27944336 143.71855469 34.98242188 144.1328125 C34.10134766 144.41898438 33.22027344 144.70515625 32.3125 145 C30.97348633 145.42925781 30.97348633 145.42925781 29.60742188 145.8671875 C27.40367606 146.57427172 25.2013002 147.28534563 23 148 C23 148.66 23 149.32 23 150 C24.74316405 151.38995405 24.74316405 151.38995405 27.015625 152.75 C27.85480469 153.2759375 28.69398438 153.801875 29.55859375 154.34375 C30.89083984 155.16359375 30.89083984 155.16359375 32.25 156 C33.12269531 156.5465625 33.99539062 157.093125 34.89453125 157.65625 C38.53663801 159.92492108 42.13254405 162.13340771 46 164 C46.12886183 156.59760355 45.79725902 149.36040917 45 142 C42.08802888 142 40.29035863 142.42995158 37.55078125 143.3125 Z M16 151 C15.91959473 151.66942627 15.83918945 152.33885254 15.75634766 153.02856445 C15.38262601 156.12363009 15.00383711 159.21805649 14.625 162.3125 C14.49867187 163.36501953 14.37234375 164.41753906 14.2421875 165.50195312 C13.39488342 172.38629874 12.32132638 179.19067427 11 186 C19.49400876 182.71601945 27.46219307 178.81868312 35.375 174.3125 C36.22553955 173.83707764 37.0760791 173.36165527 37.95239258 172.87182617 C38.7389624 172.41525635 39.52553223 171.95868652 40.3359375 171.48828125 C41.04282715 171.08134033 41.7497168 170.67439941 42.47802734 170.25512695 C43.23140381 169.63383911 43.23140381 169.63383911 44 169 C44 168.01 44 167.02 44 166 C42.87722656 165.41992188 41.75445312 164.83984375 40.59765625 164.2421875 C25.99617627 156.6391175 25.99617627 156.6391175 19.56640625 151.99609375 C18.02810426 150.82113229 18.02810426 150.82113229 16 151 Z M-2 156.875 C-2.94101563 157.23980469 -3.88203125 157.60460937 -4.8515625 157.98046875 C-5.74617188 158.33496094 -6.64078125 158.68945312 -7.5625 159.0546875 C-8.38878906 159.37937012 -9.21507813 159.70405273 -10.06640625 160.03857422 C-12.17274912 160.84401634 -12.17274912 160.84401634 -13 163 C-9.65236056 171.58874011 -3.68901739 178.78017627 3 185 C3.66 185 4.32 185 5 185 C7.85340279 174.07092894 9.15302629 164.30694222 9 153 C5.45982401 153 1.25202551 155.58755428 -2 156.875 Z M-19 164 C-19.23799316 164.54019775 -19.47598633 165.08039551 -19.72119141 165.63696289 C-22.21098065 171.2664985 -24.75622172 176.86677853 -27.375 182.4375 C-27.76349121 183.26499756 -28.15198242 184.09249512 -28.55224609 184.94506836 C-31.08987645 190.27870407 -33.82825552 195.3578767 -37.1015625 200.28515625 C-37.39804688 200.85105469 -37.69453125 201.41695312 -38 202 C-37.67 202.66 -37.34 203.32 -37 204 C-32.89532185 202.58481243 -28.79135453 201.16757401 -24.6875 199.75 C-23.53958984 199.35425781 -22.39167969 198.95851562 -21.20898438 198.55078125 C-14.11476754 196.0989556 -7.04463529 193.59092484 0 191 C-1.42081244 188.01885494 -2.72258309 186.14295197 -5.1875 183.9375 C-10.92743373 178.37768971 -15.23078083 171.48364595 -18 164 C-18.33 164 -18.66 164 -19 164 Z M-40.5 173.3125 C-41.38042969 173.71662109 -42.26085937 174.12074219 -43.16796875 174.53710938 C-44.00972656 174.93349609 -44.85148437 175.32988281 -45.71875 175.73828125 C-46.87793945 176.28029175 -46.87793945 176.28029175 -48.06054688 176.83325195 C-50.30568113 177.99590282 -50.30568113 177.99590282 -52 181 C-52.81429036 189.22750524 -52.15414295 196.37748787 -49 204 C-45.95366677 201.17335228 -43.89269563 198.41264588 -41.87109375 194.7890625 C-41.31099609 193.79132813 -40.75089844 192.79359375 -40.17382812 191.765625 C-39.3143457 190.21101563 -39.3143457 190.21101563 -38.4375 188.625 C-37.5722168 187.08199219 -37.5722168 187.08199219 -36.68945312 185.5078125 C-31.54938771 177.67356553 -31.54938771 177.67356553 -29 169 C-33.04880023 169 -36.89497027 171.61027147 -40.5 173.3125 Z M41.203125 174.37890625 C40.41462158 174.88518555 39.62611816 175.39146484 38.8137207 175.91308594 C37.54467896 176.7295459 37.54467896 176.7295459 36.25 177.5625 C28.66420372 182.406537 21.0186801 186.91148088 13 191 C15.71554647 193.9380109 18.16803674 195.82238627 21.7734375 197.54296875 C22.6809375 197.97673828 23.5884375 198.41050781 24.5234375 198.85742188 C25.46445313 199.29634766 26.40546875 199.73527344 27.375 200.1875 C28.30828125 200.63802734 29.2415625 201.08855469 30.203125 201.55273438 C34.78676223 203.71795111 38.8790882 205.56326672 44 206 C45.59882726 194.59408052 46.25940557 183.51472518 46 172 C44.16613904 172 42.69856943 173.41115563 41.203125 174.37890625 Z M-61 184 C-75.75720735 191.74478748 -90.283553 200.4249158 -95.9375 217.125 C-96.30926615 218.4117116 -96.67073668 219.70176178 -97 221 C-87.29330706 218.7017977 -77.66290174 216.14440708 -68.0625 213.4375 C-66.99 213.14480225 -65.9175 212.85210449 -64.8125 212.55053711 C-63.81347656 212.2644458 -62.81445312 211.97835449 -61.78515625 211.68359375 C-60.88676025 211.43150146 -59.98836426 211.17940918 -59.06274414 210.91967773 C-58.38203857 210.61618408 -57.70133301 210.31269043 -57 210 C-55.7580016 206.27400479 -56.8090621 204.88912031 -58.234375 201.390625 C-59.38130322 197.80940015 -59.5648143 194.25309494 -59.7890625 190.515625 C-59.9812287 188.22386515 -60.41478954 186.21522996 -61 184 Z M8 195 C7.75878418 195.56807373 7.51756836 196.13614746 7.26904297 196.72143555 C2.6636004 207.55397082 -1.96542823 218.35829733 -7 229 C1.65271738 226.74906082 9.81947762 223.37096431 18.06103516 219.95703125 C20.38779047 218.99471 22.71901517 218.04385548 25.05078125 217.09375 C26.54194718 216.47984758 28.03284263 215.86528769 29.5234375 215.25 C30.21513031 214.96866211 30.90682312 214.68732422 31.61947632 214.39746094 C35.10086862 212.94511822 38.11223264 211.44342469 41 209 C39.989375 208.62875 38.97875 208.2575 37.9375 207.875 C33.82041914 206.32469602 29.71837438 204.73674358 25.625 203.125 C24.42101562 202.65320313 23.21703125 202.18140625 21.9765625 201.6953125 C17.18876372 199.73179106 12.60225529 197.35908024 8 195 Z M-2 198 C-2.53141602 198.21092285 -3.06283203 198.4218457 -3.61035156 198.63916016 C-16.57683908 203.75634142 -29.5895783 208.19725958 -43 212 C-35.76966666 220.65540224 -28.27165364 228.06265924 -18 233 C-14.40357712 227.21030407 -11.03064204 221.31885108 -7.8125 215.3125 C-7.47992188 214.69560303 -7.14734375 214.07870605 -6.8046875 213.44311523 C-4.64195962 209.37442912 -2.60496343 205.32346827 -1 201 C-1.495 199.515 -1.495 199.515 -2 198 Z M41 213 C40.40388916 213.30591064 39.80777832 213.61182129 39.19360352 213.92700195 C26.22305375 220.55858908 13.18245211 226.84541081 -0.23803711 232.52075195 C-1.7424939 233.16403442 -1.7424939 233.16403442 -3.27734375 233.8203125 C-4.16671631 234.19430176 -5.05608887 234.56829102 -5.97241211 234.95361328 C-8.16111074 235.83077997 -8.16111074 235.83077997 -9 238 C-0.81337464 241.56099847 7.35431211 244.55301449 16 246.8125 C16.78802002 247.0189917 17.57604004 247.2254834 18.38793945 247.43823242 C22.91132887 248.5816861 27.36958773 249.42735593 32 250 C33.10812586 246.56376399 34.21074215 243.12578255 35.3125 239.6875 C35.7755957 238.25180664 35.7755957 238.25180664 36.24804688 236.78710938 C37.81725226 231.88127781 39.34832582 226.9635483 40.79296875 222.01953125 C41.04973389 221.15046143 41.30649902 220.2813916 41.57104492 219.38598633 C42.02240504 216.87537595 41.81597526 215.39115025 41 213 Z M-67.60546875 217.87109375 C-68.44467361 218.0722731 -69.28387848 218.27345245 -70.14851379 218.48072815 C-72.83006951 219.12541284 -75.50874002 219.78130577 -78.1875 220.4375 C-80.00437856 220.8763916 -81.82143397 221.3145518 -83.63867188 221.75195312 C-88.09454481 222.8261574 -92.54786251 223.91042204 -97 225 C-95.51685353 236.47760745 -89.34670665 243.32102989 -81 251 C-77.8343697 247.10553854 -74.83431964 243.11367923 -71.875 239.0625 C-71.40215576 238.41659912 -70.92931152 237.77069824 -70.44213867 237.10522461 C-65.57425997 230.44191632 -60.77866936 223.72745426 -56 217 C-60.16477471 215.61174176 -63.47280489 216.84757722 -67.60546875 217.87109375 Z M-51.3059082 219.29077148 C-51.79921631 219.89477783 -52.29252441 220.49878418 -52.80078125 221.12109375 C-53.36007324 221.80163818 -53.91936523 222.48218262 -54.49560547 223.18334961 C-55.39496826 224.29915405 -55.39496826 224.29915405 -56.3125 225.4375 C-56.92754395 226.19361572 -57.54258789 226.94973145 -58.17626953 227.72875977 C-62.64122791 233.24701082 -67.03574063 238.81995272 -71.375 244.4375 C-72.22251831 245.52792603 -72.22251831 245.52792603 -73.0871582 246.64038086 C-73.60238037 247.31464111 -74.11760254 247.98890137 -74.6484375 248.68359375 C-75.10395996 249.27712646 -75.55948242 249.87065918 -76.02880859 250.48217773 C-77.17965637 251.98045141 -77.17965637 251.98045141 -77 254 C-70.35518052 252.06193223 -63.79963178 249.94915472 -57.2734375 247.64453125 C-56.39974518 247.33803146 -55.52605286 247.03153168 -54.62588501 246.71574402 C-51.87484115 245.75011206 -49.12490659 244.78136525 -46.375 243.8125 C-44.49356252 243.15148506 -42.61205272 242.49067594 -40.73046875 241.83007812 C-36.15280756 240.22242658 -31.57613747 238.61198338 -27 237 C-29.943916 233.98688438 -32.90071056 231.57668223 -36.375 229.1875 C-41.05181375 225.85940691 -44.39934767 222.43157209 -48 218 C-50.06895463 217.76567569 -50.06895463 217.76567569 -51.3059082 219.29077148 Z M-15 242 C-15.32162109 242.4626123 -15.64324219 242.92522461 -15.97460938 243.40185547 C-17.47951908 245.56207714 -18.98886318 247.71912949 -20.5 249.875 C-21.04301758 250.6498877 -21.58603516 251.42477539 -22.14550781 252.22314453 C-25.78744165 257.38237133 -29.56067508 262.32078759 -33.671875 267.1171875 C-35.28820846 269.02456041 -35.28820846 269.02456041 -35 272 C-27.67140432 269.81916748 -20.34312476 267.63727558 -13.01524162 265.45405006 C-9.61220248 264.4402048 -6.20905755 263.42671767 -2.80566406 262.4140625 C1.11165051 261.24847643 5.02849223 260.08130853 8.9453125 258.9140625 C10.16115021 258.55253082 11.37698792 258.19099915 12.62966919 257.81851196 C13.77039886 257.47831024 14.91112854 257.13810852 16.08642578 256.78759766 C17.08570099 256.49003571 18.0849762 256.19247375 19.11453247 255.88589478 C22.09339133 254.97132704 25.0477944 253.99694695 28 253 C28 252.67 28 252.34 28 252 C26.29070312 251.77957031 26.29070312 251.77957031 24.546875 251.5546875 C12.97037535 249.95188254 2.09410894 247.23928684 -9.01147461 243.61669922 C-10.99361204 243.00198109 -12.98238733 242.48413665 -15 242 Z M-30.12670898 244.06982422 C-30.97776718 244.30361786 -31.82882538 244.5374115 -32.70567322 244.77828979 C-33.62651199 245.03450104 -34.54735077 245.29071228 -35.49609375 245.5546875 C-36.91282127 245.94710129 -36.91282127 245.94710129 -38.35816956 246.34744263 C-40.35838594 246.90260919 -42.35820789 247.45919852 -44.35766602 248.01708984 C-47.41980794 248.87007175 -50.48421872 249.71452656 -53.54882812 250.55859375 C-55.48972883 251.09843552 -57.43048885 251.63878338 -59.37109375 252.1796875 C-60.74931557 252.55793167 -60.74931557 252.55793167 -62.15538025 252.94381714 C-63.00959061 253.1839151 -63.86380096 253.42401306 -64.74389648 253.67138672 C-65.49509262 253.88012421 -66.24628876 254.08886169 -67.02024841 254.30392456 C-69.275888 255.00531086 -69.275888 255.00531086 -72 257 C-65.7866379 261.36053432 -59.18626877 264.31775028 -52.125 267 C-51.29250732 267.32685791 -50.46001465 267.65371582 -49.60229492 267.99047852 C-48.80799072 268.28237061 -48.01368652 268.5742627 -47.1953125 268.875 C-46.48391113 269.14054687 -45.77250977 269.40609375 -45.03955078 269.6796875 C-42.32121175 270.10660404 -41.24782755 269.55053403 -39 268 C-37.53650382 266.23330906 -37.53650382 266.23330906 -36.34375 264.11328125 C-35.87839844 263.33919922 -35.41304687 262.56511719 -34.93359375 261.76757812 C-34.46050781 260.95740234 -33.98742187 260.14722656 -33.5 259.3125 C-33.02691406 258.52166016 -32.55382812 257.73082031 -32.06640625 256.91601562 C-29.32029894 252.31001016 -26.6470237 247.66350637 -24 243 C-26.2436673 243 -27.96208948 243.47228611 -30.12670898 244.06982422 Z M29 255 C27.87207031 255.50789062 26.74414062 256.01578125 25.58203125 256.5390625 C13.63135312 261.8082076 1.63570566 265.73426185 -11 269 C-11.81887695 269.21172852 -12.63775391 269.42345703 -13.48144531 269.64160156 C-17.97947223 270.79583295 -22.48495282 271.91434509 -27 273 C-27 273.33 -27 273.66 -27 274 C-20.96852463 275.00200992 -14.93621471 275.99877578 -8.90307617 276.99072266 C-6.85140673 277.32880485 -4.7999714 277.66831099 -2.7487793 278.00927734 C0.20203005 278.49953048 3.15364738 278.98463241 6.10546875 279.46875 C7.02023483 279.62186646 7.93500092 279.77498291 8.87748718 279.93273926 C10.1682592 280.14295715 10.1682592 280.14295715 11.48510742 280.35742188 C12.23789474 280.48177612 12.99068207 280.60613037 13.76628113 280.73425293 C16.19593392 281.02331039 18.55547202 281.04426646 21 281 C22.53318781 277.04634027 24.04943425 273.08639947 25.5625 269.125 C26.00013672 267.99707031 26.43777344 266.86914062 26.88867188 265.70703125 C27.29794922 264.63066406 27.70722656 263.55429687 28.12890625 262.4453125 C28.70233765 260.95281982 28.70233765 260.95281982 29.28735352 259.43017578 C30.29363355 257.01990627 30.29363355 257.01990627 29 255 Z " fill="#D22A27" transform="translate(111,3)"/>
<path d="M0 0 C2.47049349 10.01773091 2.35574445 20.00544807 2.3125 30.25 C2.31067719 31.13917114 2.30885437 32.02834229 2.30697632 32.94445801 C2.16619582 73.70751917 -8.90428407 110.59018544 -29 146 C-69.66208774 145.1112112 -119.15107108 139.60690067 -149.99609375 110.08984375 C-155.07253645 104.53234164 -158.63420684 98.00979055 -159.15625 90.4140625 C-158.32834271 77.62289482 -148.94810173 67.68190147 -140.52734375 58.93359375 C-137.62695236 56.71459261 -135.59964352 56.29779344 -132 56 C-132.845625 56.94875 -133.69125 57.8975 -134.5625 58.875 C-140.69993512 66.07161423 -145.32150732 73.30127908 -149 82 C-148.3922876 81.8141333 -147.7845752 81.6282666 -147.15844727 81.43676758 C-134.45881601 77.55522821 -121.74978574 73.71369598 -109 70 C-109.20496094 69.40574219 -109.40992188 68.81148438 -109.62109375 68.19921875 C-112.05513917 60.7107441 -113.70166609 53.36592232 -112.4375 45.5 C-110.52615689 42.17592503 -108.53854973 41.32695615 -105 40 C-104.34 40 -103.68 40 -103 40 C-103.03480469 41.0621875 -103.06960937 42.124375 -103.10546875 43.21875 C-103.13363455 44.64581735 -103.16093169 46.07290202 -103.1875 47.5 C-103.21263672 48.19609375 -103.23777344 48.8921875 -103.26367188 49.609375 C-103.3391677 55.04507472 -102.1430512 59.00517201 -100 64 C-97.78897756 60.2307375 -95.58169138 56.45929946 -93.375 52.6875 C-92.75753906 51.63498047 -92.14007813 50.58246094 -91.50390625 49.49804688 C-90.89160156 48.45068359 -90.27929688 47.40332031 -89.6484375 46.32421875 C-89.03452148 45.27540527 -88.42060547 44.2265918 -87.78808594 43.14599609 C-85.57271597 39.24822746 -83.53343633 35.26933426 -81.54150391 31.25317383 C-79.68336096 28.53717744 -77.95525702 27.4063205 -75 26 C-74.01 26 -73.02 26 -72 26 C-73.53102943 32.49092685 -75.97888998 38.42813092 -78.8125 44.4375 C-79.13154297 45.11611084 -79.45058594 45.79472168 -79.77929688 46.49389648 C-82.63477824 52.44774409 -85.8028822 58.22402121 -89 64 C-84.83273254 62.56423769 -80.66629665 61.12607673 -76.5 59.6875 C-75.32695313 59.28337891 -74.15390625 58.87925781 -72.9453125 58.46289062 C-65.61019448 55.92904146 -65.61019448 55.92904146 -58.34375 53.20703125 C-55 52 -55 52 -52 52 C-52.42410156 51.52691406 -52.84820312 51.05382812 -53.28515625 50.56640625 C-70 31.72087912 -70 31.72087912 -70 24 C-68.35 23.67 -66.7 23.34 -65 23 C-64.5153125 23.83402344 -64.030625 24.66804688 -63.53125 25.52734375 C-56.95910922 37.39355938 -56.95910922 37.39355938 -47 46 C-46.87625 44.906875 -46.7525 43.81375 -46.625 42.6875 C-46.21654007 39.36146914 -45.64596812 36.10018849 -45 32.8125 C-43.96796593 27.43386987 -43.64295059 22.12004676 -43.44140625 16.65234375 C-43.22291016 15.33943359 -43.22291016 15.33943359 -43 14 C-40 12 -40 12 -36 12 C-35.31488319 23.52011234 -37.6950142 34.76599155 -40 46 C-29.11727433 40.68888255 -18.50014991 35.03200101 -8 29 C-10.61743063 26.96083466 -13.22161058 25.24737223 -16.15234375 23.6953125 C-16.92900391 23.27636719 -17.70566406 22.85742188 -18.50585938 22.42578125 C-20.12067274 21.56195338 -21.73785414 20.70253704 -23.35742188 19.84765625 C-27.96558614 17.35077188 -31.51527925 14.92823066 -35 11 C-32 9 -32 9 -29 9 C-29 9.66 -29 10.32 -29 11 C-28.35675781 11.21398437 -27.71351563 11.42796875 -27.05078125 11.6484375 C-22.79740831 13.5327743 -19.06190292 16.06628515 -15.1875 18.625 C-12.485625 20.39875 -9.78375 22.1725 -7 24 C-7 16.74 -7 9.48 -7 2 C-3 0 -3 0 0 0 Z M-10.796875 35.37890625 C-11.58537842 35.88518555 -12.37388184 36.39146484 -13.1862793 36.91308594 C-14.45532104 37.7295459 -14.45532104 37.7295459 -15.75 38.5625 C-23.33579628 43.406537 -30.9813199 47.91148088 -39 52 C-36.28445353 54.9380109 -33.83196326 56.82238627 -30.2265625 58.54296875 C-29.3190625 58.97673828 -28.4115625 59.41050781 -27.4765625 59.85742188 C-26.53554687 60.29634766 -25.59453125 60.73527344 -24.625 61.1875 C-23.69171875 61.63802734 -22.7584375 62.08855469 -21.796875 62.55273438 C-17.21323777 64.71795111 -13.1209118 66.56326672 -8 67 C-6.40117274 55.59408052 -5.74059443 44.51472518 -6 33 C-7.83386096 33 -9.30143057 34.41115563 -10.796875 35.37890625 Z M-44 56 C-44.24121582 56.56807373 -44.48243164 57.13614746 -44.73095703 57.72143555 C-49.3363996 68.55397082 -53.96542823 79.35829733 -59 90 C-50.34728262 87.74906082 -42.18052238 84.37096431 -33.93896484 80.95703125 C-31.61220953 79.99471 -29.28098483 79.04385548 -26.94921875 78.09375 C-25.45805282 77.47984758 -23.96715737 76.86528769 -22.4765625 76.25 C-21.78486969 75.96866211 -21.09317688 75.68732422 -20.38052368 75.39746094 C-16.89913138 73.94511822 -13.88776736 72.44342469 -11 70 C-12.010625 69.62875 -13.02125 69.2575 -14.0625 68.875 C-18.17958086 67.32469602 -22.28162562 65.73674358 -26.375 64.125 C-27.57898438 63.65320313 -28.78296875 63.18140625 -30.0234375 62.6953125 C-34.81123628 60.73179106 -39.39774471 58.35908024 -44 56 Z M-54 59 C-54.53141602 59.21092285 -55.06283203 59.4218457 -55.61035156 59.63916016 C-68.57683908 64.75634142 -81.5895783 69.19725958 -95 73 C-87.76966666 81.65540224 -80.27165364 89.06265924 -70 94 C-66.40357712 88.21030407 -63.03064204 82.31885108 -59.8125 76.3125 C-59.47992188 75.69560303 -59.14734375 75.07870605 -58.8046875 74.44311523 C-56.64195962 70.37442912 -54.60496343 66.32346827 -53 62 C-53.495 60.515 -53.495 60.515 -54 59 Z M-11 74 C-11.59611084 74.30591064 -12.19222168 74.61182129 -12.80639648 74.92700195 C-25.77694625 81.55858908 -38.81754789 87.84541081 -52.23803711 93.52075195 C-53.7424939 94.16403442 -53.7424939 94.16403442 -55.27734375 94.8203125 C-56.16671631 95.19430176 -57.05608887 95.56829102 -57.97241211 95.95361328 C-60.16111074 96.83077997 -60.16111074 96.83077997 -61 99 C-52.81337464 102.56099847 -44.64568789 105.55301449 -36 107.8125 C-35.21197998 108.0189917 -34.42395996 108.2254834 -33.61206055 108.43823242 C-29.08867113 109.5816861 -24.63041227 110.42735593 -20 111 C-18.89187414 107.56376399 -17.78925785 104.12578255 -16.6875 100.6875 C-16.2244043 99.25180664 -16.2244043 99.25180664 -15.75195312 97.78710938 C-14.18274774 92.88127781 -12.65167418 87.9635483 -11.20703125 83.01953125 C-10.95026611 82.15046143 -10.69350098 81.2813916 -10.42895508 80.38598633 C-9.97759496 77.87537595 -10.18402474 76.39115025 -11 74 Z M-119.60546875 78.87109375 C-120.44467361 79.0722731 -121.28387848 79.27345245 -122.14851379 79.48072815 C-124.83006951 80.12541284 -127.50874002 80.78130577 -130.1875 81.4375 C-132.00437856 81.8763916 -133.82143397 82.3145518 -135.63867188 82.75195312 C-140.09454481 83.8261574 -144.54786251 84.91042204 -149 86 C-147.51685353 97.47760745 -141.34670665 104.32102989 -133 112 C-129.8343697 108.10553854 -126.83431964 104.11367923 -123.875 100.0625 C-123.40215576 99.41659912 -122.92931152 98.77069824 -122.44213867 98.10522461 C-117.57425997 91.44191632 -112.77866936 84.72745426 -108 78 C-112.16477471 76.61174176 -115.47280489 77.84757722 -119.60546875 78.87109375 Z M-103.3059082 80.29077148 C-103.79921631 80.89477783 -104.29252441 81.49878418 -104.80078125 82.12109375 C-105.36007324 82.80163818 -105.91936523 83.48218262 -106.49560547 84.18334961 C-107.39496826 85.29915405 -107.39496826 85.29915405 -108.3125 86.4375 C-108.92754395 87.19361572 -109.54258789 87.94973145 -110.17626953 88.72875977 C-114.64122791 94.24701082 -119.03574063 99.81995272 -123.375 105.4375 C-124.22251831 106.52792603 -124.22251831 106.52792603 -125.0871582 107.64038086 C-125.60238037 108.31464111 -126.11760254 108.98890137 -126.6484375 109.68359375 C-127.10395996 110.27712646 -127.55948242 110.87065918 -128.02880859 111.48217773 C-129.17965637 112.98045141 -129.17965637 112.98045141 -129 115 C-122.35518052 113.06193223 -115.79963178 110.94915472 -109.2734375 108.64453125 C-108.39974518 108.33803146 -107.52605286 108.03153168 -106.62588501 107.71574402 C-103.87484115 106.75011206 -101.12490659 105.78136525 -98.375 104.8125 C-96.49356252 104.15148506 -94.61205272 103.49067594 -92.73046875 102.83007812 C-88.15280756 101.22242658 -83.57613747 99.61198338 -79 98 C-81.943916 94.98688438 -84.90071056 92.57668223 -88.375 90.1875 C-93.05181375 86.85940691 -96.39934767 83.43157209 -100 79 C-102.06895463 78.76567569 -102.06895463 78.76567569 -103.3059082 80.29077148 Z M-67 103 C-67.32162109 103.4626123 -67.64324219 103.92522461 -67.97460938 104.40185547 C-69.47951908 106.56207714 -70.98886318 108.71912949 -72.5 110.875 C-73.04301758 111.6498877 -73.58603516 112.42477539 -74.14550781 113.22314453 C-77.78744165 118.38237133 -81.56067508 123.32078759 -85.671875 128.1171875 C-87.28820846 130.02456041 -87.28820846 130.02456041 -87 133 C-79.67140432 130.81916748 -72.34312476 128.63727558 -65.01524162 126.45405006 C-61.61220248 125.4402048 -58.20905755 124.42671767 -54.80566406 123.4140625 C-50.88834949 122.24847643 -46.97150777 121.08130853 -43.0546875 119.9140625 C-41.83884979 119.55253082 -40.62301208 119.19099915 -39.37033081 118.81851196 C-38.22960114 118.47831024 -37.08887146 118.13810852 -35.91357422 117.78759766 C-34.91429901 117.49003571 -33.9150238 117.19247375 -32.88546753 116.88589478 C-29.90660867 115.97132704 -26.9522056 114.99694695 -24 114 C-24 113.67 -24 113.34 -24 113 C-25.70929688 112.77957031 -25.70929688 112.77957031 -27.453125 112.5546875 C-39.02962465 110.95188254 -49.90589106 108.23928684 -61.01147461 104.61669922 C-62.99361204 104.00198109 -64.98238733 103.48413665 -67 103 Z M-82.12670898 105.06982422 C-82.97776718 105.30361786 -83.82882538 105.5374115 -84.70567322 105.77828979 C-85.62651199 106.03450104 -86.54735077 106.29071228 -87.49609375 106.5546875 C-88.91282127 106.94710129 -88.91282127 106.94710129 -90.35816956 107.34744263 C-92.35838594 107.90260919 -94.35820789 108.45919852 -96.35766602 109.01708984 C-99.41980794 109.87007175 -102.48421872 110.71452656 -105.54882812 111.55859375 C-107.48972883 112.09843552 -109.43048885 112.63878338 -111.37109375 113.1796875 C-112.74931557 113.55793167 -112.74931557 113.55793167 -114.15538025 113.94381714 C-115.00959061 114.1839151 -115.86380096 114.42401306 -116.74389648 114.67138672 C-117.49509262 114.88012421 -118.24628876 115.08886169 -119.02024841 115.30392456 C-121.275888 116.00531086 -121.275888 116.00531086 -124 118 C-117.7866379 122.36053432 -111.18626877 125.31775028 -104.125 128 C-103.29250732 128.32685791 -102.46001465 128.65371582 -101.60229492 128.99047852 C-100.80799072 129.28237061 -100.01368652 129.5742627 -99.1953125 129.875 C-98.48391113 130.14054687 -97.77250977 130.40609375 -97.03955078 130.6796875 C-94.32121175 131.10660404 -93.24782755 130.55053403 -91 129 C-89.53650382 127.23330906 -89.53650382 127.23330906 -88.34375 125.11328125 C-87.87839844 124.33919922 -87.41304687 123.56511719 -86.93359375 122.76757812 C-86.46050781 121.95740234 -85.98742187 121.14722656 -85.5 120.3125 C-85.02691406 119.52166016 -84.55382812 118.73082031 -84.06640625 117.91601562 C-81.32029894 113.31001016 -78.6470237 108.66350637 -76 104 C-78.2436673 104 -79.96208948 104.47228611 -82.12670898 105.06982422 Z M-23 116 C-24.12792969 116.50789063 -25.25585938 117.01578125 -26.41796875 117.5390625 C-38.36864688 122.8082076 -50.36429434 126.73426185 -63 130 C-63.81887695 130.21172852 -64.63775391 130.42345703 -65.48144531 130.64160156 C-69.97947223 131.79583295 -74.48495282 132.91434509 -79 134 C-79 134.33 -79 134.66 -79 135 C-72.96852463 136.00200992 -66.93621471 136.99877578 -60.90307617 137.99072266 C-58.85140673 138.32880485 -56.7999714 138.66831099 -54.7487793 139.00927734 C-51.79796995 139.49953048 -48.84635262 139.98463241 -45.89453125 140.46875 C-44.97976517 140.62186646 -44.06499908 140.77498291 -43.12251282 140.93273926 C-41.8317408 141.14295715 -41.8317408 141.14295715 -40.51489258 141.35742188 C-39.76210526 141.48177612 -39.00931793 141.60613037 -38.23371887 141.73425293 C-35.80406608 142.02331039 -33.44452798 142.04426646 -31 142 C-29.46681219 138.04634027 -27.95056575 134.08639947 -26.4375 130.125 C-25.99986328 128.99707031 -25.56222656 127.86914062 -25.11132812 126.70703125 C-24.70205078 125.63066406 -24.29277344 124.55429687 -23.87109375 123.4453125 C-23.29766235 121.95281982 -23.29766235 121.95281982 -22.71264648 120.43017578 C-21.70636645 118.01990627 -21.70636645 118.01990627 -23 116 Z " fill="#BAC0C8" transform="translate(163,142)"/>
<path d="M0 0 C0.2928186 0.80497925 0.2928186 0.80497925 0.59155273 1.6262207 C5.40520471 14.77199859 10.78417144 27.45811145 17 40 C17.55429688 41.1240625 18.10859375 42.248125 18.6796875 43.40625 C19.77541808 45.61009229 20.87909669 47.80888749 22 50 C14.89773081 49.8880945 14.89773081 49.8880945 12.58984375 47.60498047 C11.41894084 45.76142036 10.44021206 43.90847733 9.5 41.9375 C9.15453125 41.27427734 8.8090625 40.61105469 8.453125 39.92773438 C7.60919197 38.29847477 6.80091872 36.6508298 6 35 C5.32453125 35.55429687 4.6490625 36.10859375 3.953125 36.6796875 C3.06109375 37.40414062 2.1690625 38.12859375 1.25 38.875 C0.36828125 39.59429687 -0.5134375 40.31359375 -1.421875 41.0546875 C-6.66990291 45.01456311 -6.66990291 45.01456311 -10.140625 44.9765625 C-12.09375 44.65104167 -14.046875 44.32552083 -16 44 C-16 43.34 -16 42.68 -16 42 C-10.06 38.7 -4.12 35.4 2 32 C-0.57167969 31.61908203 -0.57167969 31.61908203 -3.1953125 31.23046875 C-14.88843984 29.47778085 -26.47867759 27.67937731 -38 25 C-32.39 30.61 -26.78 36.22 -21 42 C-24.97472882 43.32490961 -26.94932153 43.1567314 -31 42 C-33.63250107 39.59477054 -35.66039532 36.81623774 -37.75 33.9375 C-38.86161504 32.44050812 -39.9810451 30.94927776 -41.109375 29.46484375 C-41.59374023 28.800896 -42.07810547 28.13694824 -42.57714844 27.45288086 C-43.04668945 26.97343018 -43.51623047 26.49397949 -44 26 C-44.99 26 -45.98 26 -47 26 C-49.11327024 28.2680076 -50.96682798 30.68079605 -52.8671875 33.12890625 C-53.92292969 34.05509766 -53.92292969 34.05509766 -55 35 C-57.7578125 34.77734375 -57.7578125 34.77734375 -60 34 C-60.66 32.02 -61.32 30.04 -62 28 C-48.52655387 16.50309854 -31.18989291 10.00749738 -14.8125 3.8125 C-13.7913208 3.42586182 -12.7701416 3.03922363 -11.71801758 2.64086914 C-4.52002032 0 -4.52002032 0 0 0 Z M-8.72265625 5.484375 C-9.90150391 6.00773438 -11.08035156 6.53109375 -12.29492188 7.0703125 C-12.91423584 7.34649414 -13.5335498 7.62267578 -14.17163086 7.90722656 C-16.02922866 8.73517074 -17.88851724 9.55921803 -19.74804688 10.3828125 C-25.90650704 13.12287617 -32.0055834 15.91672954 -38 19 C-38 19.33 -38 19.66 -38 20 C-24.47 22.31 -10.94 24.62 3 27 C1.82272904 21.1136452 0.6402397 15.24111135 -0.625 9.375 C-1.01558594 7.56128906 -1.01558594 7.56128906 -1.4140625 5.7109375 C-1.60742188 4.81632813 -1.80078125 3.92171875 -2 3 C-4.24436005 3 -6.74190843 4.60496632 -8.72265625 5.484375 Z " fill="#B7BDC5" transform="translate(111,3)"/>
<path d="M0 0 C3.03336186 -0.22893297 5.97465051 -0.36475845 9 0 C11.0625 2 11.0625 2 12 4 C12.66 2.68 13.32 1.36 14 0 C14.66 0 15.32 0 16 0 C16 3.3 16 6.6 16 10 C13.03 10 10.06 10 7 10 C6.67 7.36 6.34 4.72 6 2 C5.34 2 4.68 2 4 2 C4 4.64 4 7.28 4 10 C3.34 10 2.68 10 2 10 C2 7.36 2 4.72 2 2 C1.34 2 0.68 2 0 2 C0 1.34 0 0.68 0 0 Z " fill="#201C1C" transform="translate(142,278)"/>
<path d="M0 0 C0.825 0.309375 1.65 0.61875 2.5 0.9375 C-0.69588005 4.64472086 -3.88710598 6.34395479 -8.5 7.9375 C-9.49 7.6075 -10.48 7.2775 -11.5 6.9375 C-4.60284464 -0.08219365 -4.60284464 -0.08219365 0 0 Z " fill="#B03D41" transform="translate(37.5,191.0625)"/>
<path d="M0 0 C0.66 0.66 1.32 1.32 2 2 C1.75 4.5625 1.75 4.5625 1 7 C0.01 7.495 0.01 7.495 -1 8 C-1 7.01 -1 6.02 -1 5 C-1.99 5.495 -1.99 5.495 -3 6 C-1.125 1.125 -1.125 1.125 0 0 Z " fill="#909BA8" transform="translate(35,247)"/>
<path d="M0 0 C0.66 0.33 1.32 0.66 2 1 C2.33 1.99 2.66 2.98 3 4 C6.00847418 5.22520264 6.00847418 5.22520264 9 6 C9 6.33 9 6.66 9 7 C2.47692308 6.38461538 2.47692308 6.38461538 0.0625 4.4375 C-0.288125 3.963125 -0.63875 3.48875 -1 3 C-0.67 2.01 -0.34 1.02 0 0 Z " fill="#AA4347" transform="translate(48,32)"/>
<path d="M0 0 C0.99 1.32 1.98 2.64 3 4 C2.67 4.66 2.34 5.32 2 6 C0 3 0 3 0 0 Z " fill="#1F1717" transform="translate(0,284)"/>
</svg>
