<svg xmlns="http://www.w3.org/2000/svg" width="268" height="318">
    <path d="m111 3 .592 1.626c3.693 10.088 7.538 20.045 12.158 29.749l1.103 2.318c1.689 3.485 3.452 6.88 5.413 10.221C132 50 132 50 132 52l2.575.343c41.658 5.725 93.24 16.142 120.76 51.365 8.19 10.865 8.19 10.865 9.665 15.292l-2.334.408c-29.697 5.245-59.028 11.908-88.024 20.205l-3.341.953-2.901.842C166 142 166 142 163 142l.427 1.73c2.042 9.466 1.926 18.885 1.886 28.52l-.006 2.694C165.167 215.708 154.096 252.59 134 288c-40.662-.889-90.151-6.393-120.996-35.91-5.077-5.558-8.638-12.08-9.16-19.676C4.794 217.72 16.73 206.324 27 197c2.81-2.378 5.658-4.69 8.54-6.98 2.793-2.293 5.292-4.757 7.796-7.356 1.748-1.748 3.584-3.323 5.477-4.914C67.397 161.59 84.67 137.958 88 113c1.149-20.325-3.497-36.51-17-52-4.368-4.615-8.969-9.006-13.537-13.42a980.4 980.4 0 0 1-4.615-4.51l-2.75-2.663C48.106 38.122 47.152 37 47 34c9.345-14.358 33.89-21.387 49.063-27.125l3.117-1.183C106.487 3 106.487 3 111 3Zm-8.723 5.484-3.572 1.586-1.877.837c-1.857.828-3.717 1.652-5.576 2.476C85.093 16.123 78.994 18.917 73 22v1l41 7c-1.177-5.886-2.36-11.759-3.625-17.625-.39-1.814-.39-1.814-.79-3.664-.192-.895-.386-1.79-.585-2.711-2.244 0-4.742 1.605-6.723 2.484ZM71 27l2.098 2.078a288.321 288.321 0 0 1 6.023 6.219l3.317 3.453 1.658 1.785c2.446 2.519 4.438 4.257 7.666 5.695 5.229-.372 9.161-3.042 13.613-5.667l2.809-1.604A618.647 618.647 0 0 0 115 35v-1l-2.875-.262c-10.222-1.025-20.153-2.864-30.188-5.061l-2.992-.654-2.671-.596c-2.38-.52-2.38-.52-5.274-.427Zm-5 0a451.243 451.243 0 0 0-3.875 3.25l-2.18 1.828C58.03 33.971 57.035 35.537 56 38c11.291 4.37 11.291 4.37 23 4-1.79-2.126-3.582-4.25-5.375-6.375l-1.54-1.828-1.483-1.758-1.365-1.619C68.206 29.237 67.11 28.11 66 27Zm46.188 13.813A307.114 307.114 0 0 1 103 48l21 3c-1.27-3.813-2.33-6.906-4.125-10.375l-1.07-2.086L118 37c-2.121 0-4.28 2.568-5.813 3.813ZM64 46c1.993 2.584 4.003 5.003 6.313 7.313 2.86 2.86 5.496 5.856 8.136 8.917A78.752 78.752 0 0 0 82 66c-.58-5.444-1.201-11.207-4-16-4.072-2.775-9.193-3.4-14-4Zm18 4c1.85 5.548 3.712 11.062 5.688 16.563l1.324 3.69L90 73l2.625-2.438c4.219-3.644 8.856-6.546 13.575-9.49 2.489-1.557 4.716-2.988 6.8-5.072l-31-6Zm27.875 13.063-1.76 1.51C106.405 66.043 104.7 67.52 103 69l-2.637 2.29A998.943 998.943 0 0 0 95 76c2.287 2.287 3.604 2.623 6.684 3.473l2.81.787 2.944.802 5.746 1.598c.85.234 1.702.467 2.58.707A118.96 118.96 0 0 1 121 85c.384-9.488-.446-17.848-3-27-3.426 0-5.64 2.902-8.125 5.063ZM122 58l.84 3.438L123.937 66l.553 2.254c1.174 4.907 1.968 9.729 2.51 14.746l1.738-.96c7.218-3.966 14.496-7.806 21.798-11.612l2.401-1.256 2.153-1.122c1.688-.928 3.307-1.981 4.91-3.05-9.114-2.1-18.226-4.121-27.438-5.75l-2.165-.386C127.554 58.374 124.89 58 122 58Zm48 9-.734 3.586c-1.643 7.812-3.23 15.35-6.532 22.664-.863 1.741-.863 1.741-.734 3.75 3.99-.698 7.692-1.834 11.523-3.145l3.848-1.302c1.986-.676 3.97-1.354 5.955-2.034A367.495 367.495 0 0 1 212 82c-4.421-2.947-9.289-4.52-14.25-6.375l-3.258-1.222C186.425 71.423 178.382 68.92 170 67Zm-5 0c-9.147 5.21-18.291 10.43-27.188 16.063l-1.797 1.118c-1.376.884-2.702 1.844-4.015 2.819v2l3.578 1.68 4.672 2.195 2.355 1.105 2.286 1.075 2.094.984C149.003 97 151.004 97.994 153 99c8.153-14.326 8.153-14.326 13-30l-1-2ZM93 85l1 26c6.222-4.524 6.222-4.524 11.625-9.563 2.96-3.062 6.058-5.767 9.375-8.437-.81-2.172-.81-2.172-2.934-2.778l-2.504-.73-2.71-.8-2.852-.817-2.852-.84C97.14 85.641 97.14 85.641 93 85Zm113.848 2.906-3.767 1.244-4.018 1.35-2.034.68c-8.689 2.915-17.32 5.94-25.841 9.32l-2.51.986c-4.06 1.39-4.06 1.39-6.678 4.514l2.055 1.512c7.757 5.984 13.291 12.553 18.945 20.488 8.065-7.895 14.939-16.821 21.813-25.75l1.632-2.11c3.476-4.552 6.608-9.23 9.555-14.14-3.453 0-5.872.822-9.152 1.906ZM221 86l-.775 1.478C212.508 102.075 203.92 113.528 192 125c3.6 1.248 6.15.75 9.828-.074l3.57-.77 3.852-.844c11.488-2.445 22.963-4.297 34.625-5.687l2.16-.257c3.986-.472 7.975-.927 11.965-1.368-.938-1.1-1.877-2.198-2.816-3.297l-1.585-1.854c-4.823-5.576-10.056-10.095-15.974-14.474l-1.855-1.38c-4.708-3.417-9.637-6.264-14.77-8.995Zm-96 10-.988 3.29-1.325 4.335-.646 2.16c-1.048 3.409-2.144 6.418-3.771 9.613L117 118l1 2c3.961-2.12 7.919-4.246 11.875-6.375l3.418-1.828 3.262-1.758 3.015-1.619c2.505-1.326 2.505-1.326 4.43-3.42a2435.686 2435.686 0 0 0-8.375-4.5l-2.406-1.3-2.305-1.231-2.126-1.143c-1.762-.966-1.762-.966-3.788-.826Zm-12.266 5.668-1.949 1.709-2.035 1.81-3.953 3.481-1.928 1.708c-1.751 1.522-3.542 2.976-5.353 4.425L95 117v2c1.655 1.26 1.655 1.26 3.75 2.438 2.891 1.707 5.591 3.508 8.25 5.562 1.474-2.972 2.926-5.953 4.375-8.938l1.25-2.517C115.271 110.062 116.9 104.99 118 99c-2.668 0-3.286.917-5.266 2.668ZM154 111a315.404 315.404 0 0 0-5 6.375c-4.14 5.345-8.425 10.466-13.004 15.445a194.634 194.634 0 0 0-5.246 5.993c-2.448 2.885-5.035 5.552-7.75 8.187 8.783-1.703 17.106-4.632 25.545-7.536 1.914-.656 3.828-1.308 5.744-1.956l1.9-.645c5.916-1.97 11.917-3.501 17.973-4.973L177 131l1-2c-11.2-10.892-11.2-10.892-24-18Zm-14 4c-2.713 1.163-2.713 1.163-5.777 2.895l-3.494 1.896-3.667 2.022-3.654 1.986c-6.313 3.418-6.313 3.418-12.408 7.201.648 4.193 1.512 8.265 2.563 12.375l.816 3.21L115 149c11.124-8.5 18.812-21.79 27-33l-2-1Zm-50 12a1913.12 1913.12 0 0 0-2.438 5.75l-1.37 3.234c-.932 2.357-1.67 4.546-2.192 7.016a177.221 177.221 0 0 0 10.313-6.563l2.675-1.816L99 133v-2l-3.375-2-1.898-1.125c-1.702-1.026-1.702-1.026-3.727-.875Zm14 11-1.512 1.984c-5.357 6.81-11.127 12.622-17.57 18.387A149.021 149.021 0 0 0 78 165c5.952-.985 11.3-3.392 16.858-5.665a911.357 911.357 0 0 1 5.7-2.298l3.614-1.47 3.315-1.346c2.64-.967 2.64-.967 3.513-3.221-.658-2.63-.658-2.63-1.75-5.5-.345-.98-.69-1.96-1.047-2.969-1.072-2.815-1.072-2.815-4.203-4.531Zm-12 5c-13.493 8.402-13.493 8.402-24 20v2c4.893-1.523 8.107-4.362 11.875-7.688l1.87-1.625C86.006 151.953 90.087 148.1 94 144l-2-1Zm56.55 3.313-2.568.82-2.67.867-2.705.867c-2.203.707-4.406 1.418-6.607 2.133v2c1.743 1.39 1.743 1.39 4.016 2.75l2.543 1.594L143.25 159l2.645 1.656c3.642 2.269 7.238 4.477 11.105 6.344.129-7.402-.203-14.64-1-22-2.912 0-4.71.43-7.45 1.313ZM127 154a5658.118 5658.118 0 0 1-1.375 11.313l-.383 3.189A299.223 299.223 0 0 1 122 189c8.494-3.284 16.462-7.181 24.375-11.688l2.577-1.44 2.384-1.384 2.142-1.233L155 172v-3l-3.402-1.758c-14.602-7.603-14.602-7.603-21.032-12.246-1.538-1.175-1.538-1.175-3.566-.996Zm-18 5.875-2.852 1.105-2.71 1.075-2.504.984c-2.107.805-2.107.805-2.934 2.961 3.348 8.589 9.311 15.78 16 22h2c2.853-10.93 4.153-20.693 4-32-3.54 0-7.748 2.588-11 3.875ZM92 167l-.721 1.637a801.445 801.445 0 0 1-7.654 16.8l-1.177 2.508c-2.538 5.334-5.276 10.413-8.55 15.34L73 205l1 2c4.105-1.415 8.209-2.832 12.313-4.25l3.478-1.2c7.094-2.451 14.164-4.96 21.209-7.55-1.42-2.981-2.723-4.857-5.188-7.063C100.073 181.377 95.77 174.484 93 167h-1Zm-21.5 9.313-2.668 1.224-2.55 1.201-2.343 1.095c-2.245 1.163-2.245 1.163-3.939 4.167-.814 8.228-.154 15.377 3 23 3.046-2.827 5.107-5.587 7.129-9.21l1.697-3.024 1.737-3.141 1.748-3.117c5.14-7.834 5.14-7.834 7.689-16.508-4.049 0-7.895 2.61-11.5 4.313Zm81.703 1.066-2.39 1.534-2.563 1.65c-7.586 4.844-15.231 9.348-23.25 13.437 2.716 2.938 5.168 4.822 8.773 6.543l2.75 1.314c.941.44 1.882.878 2.852 1.33l2.828 1.366c4.584 2.165 8.676 4.01 13.797 4.447 1.599-11.406 2.26-22.485 2-34-1.834 0-3.301 1.411-4.797 2.379ZM50 187c-14.757 7.745-29.284 16.425-34.938 33.125A122.21 122.21 0 0 0 14 224c9.707-2.298 19.337-4.856 28.938-7.563l3.25-.886 3.027-.867 2.722-.764L54 213c1.242-3.726.19-5.11-1.234-8.61-1.147-3.58-1.33-7.137-1.555-10.874-.192-2.292-.626-4.3-1.211-6.516Zm69 11-.731 1.721C113.664 210.554 109.035 221.358 104 232c8.653-2.25 16.82-5.629 25.061-9.043a1440.4 1440.4 0 0 1 6.99-2.863l4.472-1.844 2.096-.853c3.482-1.452 6.493-2.954 9.381-5.397l-3.063-1.125a881.552 881.552 0 0 1-12.312-4.75l-3.648-1.43c-4.788-1.963-9.375-4.336-13.977-6.695Zm-10 3c-.531.21-1.063.422-1.61.64C94.423 206.755 81.41 211.196 68 215c7.23 8.655 14.728 16.063 25 21 3.596-5.79 6.97-11.681 10.188-17.688l1.007-1.869c2.163-4.069 4.2-8.12 5.805-12.443l-1-3Zm43 15-1.806.927c-12.97 6.632-26.012 12.918-39.432 18.594l-3.04 1.3-2.694 1.133c-2.19.877-2.19.877-3.028 3.046 8.187 3.561 16.354 6.553 25 8.813l2.388.625A110.224 110.224 0 0 0 143 253c1.108-3.436 2.21-6.874 3.313-10.313l.935-2.9c1.57-4.906 3.1-9.823 4.545-14.767l.778-2.634c.451-2.51.245-3.995-.571-6.386Zm-108.605 4.871-2.544.61c-2.681.644-5.36 1.3-8.038 1.957-1.817.438-3.634.877-5.452 1.314C22.905 225.826 18.452 226.91 14 228c1.483 11.478 7.653 18.321 16 26 3.166-3.894 6.166-7.886 9.125-11.938l1.433-1.957C45.426 233.442 50.22 226.727 55 220c-4.165-1.388-7.473-.152-11.605.871Zm16.3 1.42-1.496 1.83-1.695 2.062-1.816 2.255-1.864 2.29a943.485 943.485 0 0 0-13.199 16.71l-1.712 2.202-1.561 2.044-1.38 1.798C33.82 254.98 33.82 254.98 34 257c6.645-1.938 13.2-4.05 19.727-6.355l2.647-.93c2.751-.965 5.501-1.934 8.251-2.903l5.645-1.982c4.577-1.608 9.154-3.218 13.73-4.83-2.944-3.013-5.9-5.423-9.375-7.813C69.948 228.86 66.601 225.433 63 221c-2.069-.234-2.069-.234-3.306 1.29ZM96 245l-.975 1.402c-1.505 2.16-3.014 4.317-4.525 6.473l-1.646 2.348c-3.641 5.16-7.415 10.098-11.526 14.894-1.616 1.908-1.616 1.908-1.328 4.883a70246.269 70246.269 0 0 0 32.194-9.586l11.751-3.5 3.685-1.095 3.456-1.031 3.029-.902A336.03 336.03 0 0 0 139 256v-1l-3.453-.445c-11.577-1.603-22.453-4.316-33.558-7.938-1.983-.615-3.971-1.133-5.989-1.617Zm-15.127 2.07-2.579.708-2.79.777-2.862.792c-2 .556-4 1.112-6 1.67-3.062.853-6.126 1.698-9.19 2.542l-5.823 1.62-2.784.765-2.589.727c-.751.21-1.502.418-2.276.633-2.256.701-2.256.701-4.98 2.696 6.213 4.36 12.814 7.318 19.875 10l2.523.99 2.407.885 2.155.805c2.719.427 3.792-.13 6.04-1.68 1.463-1.767 1.463-1.767 2.656-3.887l1.41-2.345 1.434-2.455 1.434-2.397A752.824 752.824 0 0 0 87 246c-2.244 0-3.962.472-6.127 1.07ZM140 258l-3.418 1.54c-11.95 5.268-23.946 9.194-36.582 12.46l-2.481.642A915.374 915.374 0 0 1 84 276v1c6.031 1.002 12.064 1.999 18.097 2.99 2.052.339 4.103.678 6.154 1.02 2.951.49 5.903.975 8.854 1.459l2.772.464 2.608.424c.753.125 1.506.25 2.281.377 2.43.29 4.79.31 7.234.266 1.533-3.954 3.05-7.914 4.563-11.875l1.326-3.418 1.24-3.262 1.158-3.015c1.007-2.41 1.007-2.41-.287-4.43Z" fill="#D22A27"/>
    <path d="M163 142c2.47 10.018 2.356 20.005 2.313 30.25l-.006 2.694C165.167 215.708 154.096 252.59 134 288c-40.662-.889-90.151-6.393-120.996-35.91-5.077-5.558-8.638-12.08-9.16-19.676.828-12.791 10.208-22.732 18.629-31.48 2.9-2.22 4.927-2.636 8.527-2.934l-2.563 2.875C22.3 208.072 17.678 215.301 14 224l1.842-.563C28.542 219.555 41.25 215.714 54 212l-.621-1.8c-2.434-7.49-4.08-14.834-2.816-22.7 1.91-3.324 3.898-4.173 7.437-5.5h2l-.105 3.219c-.029 1.427-.056 2.854-.083 4.281l-.076 2.11c-.075 5.435 1.12 9.395 3.264 14.39 2.211-3.77 4.418-7.54 6.625-11.313l1.871-3.189 1.856-3.174 1.86-3.178c2.215-3.898 4.255-7.877 6.246-11.893 1.859-2.716 3.587-3.847 6.542-5.253h3c-1.531 6.49-3.979 12.428-6.813 18.438l-.966 2.056C80.365 194.448 77.197 200.224 74 206c4.167-1.436 8.334-2.874 12.5-4.313l3.555-1.224c7.335-2.534 7.335-2.534 14.601-5.256C108 194 108 194 111 194l-1.285-1.434C93 173.721 93 173.721 93 166l5-1 1.469 2.527C106.04 179.394 106.04 179.394 116 188l.375-3.313c.408-3.326.979-6.587 1.625-9.875 1.032-5.378 1.357-10.692 1.559-16.16L120 156c3-2 3-2 7-2 .685 11.52-1.695 22.766-4 34a536.436 536.436 0 0 0 32-17c-2.617-2.04-5.222-3.753-8.152-5.305l-2.354-1.27a993.055 993.055 0 0 0-4.851-2.577c-4.609-2.497-8.158-4.92-11.643-8.848 3-2 3-2 6-2v2l1.95.648c4.253 1.885 7.988 4.418 11.863 6.977L156 166v-22c4-2 4-2 7-2Zm-10.797 35.379-2.39 1.534-2.563 1.65c-7.586 4.844-15.231 9.348-23.25 13.437 2.716 2.938 5.168 4.822 8.773 6.543l2.75 1.314c.941.44 1.882.878 2.852 1.33l2.828 1.366c4.584 2.165 8.676 4.01 13.797 4.447 1.599-11.406 2.26-22.485 2-34-1.834 0-3.301 1.411-4.797 2.379ZM119 198l-.731 1.721C113.664 210.554 109.035 221.358 104 232c8.653-2.25 16.82-5.629 25.061-9.043a1440.4 1440.4 0 0 1 6.99-2.863l4.472-1.844 2.096-.853c3.482-1.452 6.493-2.954 9.381-5.397l-3.063-1.125a881.552 881.552 0 0 1-12.312-4.75l-3.648-1.43c-4.788-1.963-9.375-4.336-13.977-6.695Zm-10 3c-.531.21-1.063.422-1.61.64C94.423 206.755 81.41 211.196 68 215c7.23 8.655 14.728 16.063 25 21 3.596-5.79 6.97-11.681 10.188-17.688l1.007-1.869c2.163-4.069 4.2-8.12 5.805-12.443l-1-3Zm43 15-1.806.927c-12.97 6.632-26.012 12.918-39.432 18.594l-3.04 1.3-2.694 1.133c-2.19.877-2.19.877-3.028 3.046 8.187 3.561 16.354 6.553 25 8.813l2.388.625A110.224 110.224 0 0 0 143 253c1.108-3.436 2.21-6.874 3.313-10.313l.935-2.9c1.57-4.906 3.1-9.823 4.545-14.767l.778-2.634c.451-2.51.245-3.995-.571-6.386Zm-108.605 4.871-2.544.61c-2.681.644-5.36 1.3-8.038 1.957-1.817.438-3.634.877-5.452 1.314C22.905 225.826 18.452 226.91 14 228c1.483 11.478 7.653 18.321 16 26 3.166-3.894 6.166-7.886 9.125-11.938l1.433-1.957C45.426 233.442 50.22 226.727 55 220c-4.165-1.388-7.473-.152-11.605.871Zm16.3 1.42-1.496 1.83-1.695 2.062-1.816 2.255-1.864 2.29a943.485 943.485 0 0 0-13.199 16.71l-1.712 2.202-1.561 2.044-1.38 1.798C33.82 254.98 33.82 254.98 34 257c6.645-1.938 13.2-4.05 19.727-6.355l2.647-.93c2.751-.965 5.501-1.934 8.251-2.903l5.645-1.982c4.577-1.608 9.154-3.218 13.73-4.83-2.944-3.013-5.9-5.423-9.375-7.813C69.948 228.86 66.601 225.433 63 221c-2.069-.234-2.069-.234-3.306 1.29ZM96 245l-.975 1.402c-1.505 2.16-3.014 4.317-4.525 6.473l-1.646 2.348c-3.641 5.16-7.415 10.098-11.526 14.894-1.616 1.908-1.616 1.908-1.328 4.883a70246.269 70246.269 0 0 0 32.194-9.586l11.751-3.5 3.685-1.095 3.456-1.031 3.029-.902A336.03 336.03 0 0 0 139 256v-1l-3.453-.445c-11.577-1.603-22.453-4.316-33.558-7.938-1.983-.615-3.971-1.133-5.989-1.617Zm-15.127 2.07-2.579.708-2.79.777-2.862.792c-2 .556-4 1.112-6 1.67-3.062.853-6.126 1.698-9.19 2.542l-5.823 1.62-2.784.765-2.589.727c-.751.21-1.502.418-2.276.633-2.256.701-2.256.701-4.98 2.696 6.213 4.36 12.814 7.318 19.875 10l2.523.99 2.407.885 2.155.805c2.719.427 3.792-.13 6.04-1.68 1.463-1.767 1.463-1.767 2.656-3.887l1.41-2.345 1.434-2.455 1.434-2.397A752.824 752.824 0 0 0 87 246c-2.244 0-3.962.472-6.127 1.07ZM140 258l-3.418 1.54c-11.95 5.268-23.946 9.194-36.582 12.46l-2.481.642A915.374 915.374 0 0 1 84 276v1c6.031 1.002 12.064 1.999 18.097 2.99 2.052.339 4.103.678 6.154 1.02 2.951.49 5.903.975 8.854 1.459l2.772.464 2.608.424c.753.125 1.506.25 2.281.377 2.43.29 4.79.31 7.234.266 1.533-3.954 3.05-7.914 4.563-11.875l1.326-3.418 1.24-3.262 1.158-3.015c1.007-2.41 1.007-2.41-.287-4.43Z" fill="#BAC0C8"/>
    <path d="m111 3 .592 1.626C116.405 17.772 121.784 30.458 128 43l1.68 3.406c1.095 2.204 2.2 4.403 3.32 6.594-7.102-.112-7.102-.112-9.41-2.395-1.171-1.844-2.15-3.697-3.09-5.667-.345-.664-.69-1.327-1.047-2.01A209.906 209.906 0 0 1 117 38l-2.047 1.68-2.703 2.195-2.672 2.18c-5.248 3.96-5.248 3.96-8.719 3.922L95 47v-2l18-10c-2.572-.38-2.572-.38-5.195-.77C96.112 32.478 84.52 30.68 73 28l17 17c-3.975 1.325-5.95 1.157-10 0-2.633-2.405-4.66-5.184-6.75-8.063a498.89 498.89 0 0 0-3.36-4.472l-1.467-2.012L67 29h-3c-2.113 2.268-3.967 4.68-5.867 7.129L56 38c-2.758-.223-2.758-.223-5-1l-2-6C62.473 19.503 79.81 13.007 96.188 6.812l3.094-1.171C106.48 3 106.48 3 111 3Zm-8.723 5.484-3.572 1.586-1.877.837c-1.857.828-3.717 1.652-5.576 2.476C85.093 16.123 78.994 18.917 73 22v1l41 7c-1.177-5.886-2.36-11.759-3.625-17.625-.39-1.814-.39-1.814-.79-3.664-.192-.895-.386-1.79-.585-2.711-2.244 0-4.742 1.605-6.723 2.484Z" fill="#B7BDC5"/>
    <path d="M142 278c3.033-.229 5.975-.365 9 0 2.063 2 2.063 2 3 4l2-4h2v10h-9l-1-8h-2v8h-2v-8h-2v-2Z" fill="#201C1C"/>
    <path d="M37.5 191.063 40 192c-3.196 3.707-6.387 5.406-11 7l-3-1c6.897-7.02 6.897-7.02 11.5-6.938Z" fill="#B03D41"/>
    <path d="m35 247 2 2c-.25 2.563-.25 2.563-1 5l-2 1v-3l-2 1c1.875-4.875 1.875-4.875 3-6Z" fill="#909BA8"/>
    <path d="m48 32 2 1 1 3c3.008 1.225 3.008 1.225 6 2v1c-6.523-.615-6.523-.615-8.938-2.563L47 35l1-3Z" fill="#AA4347"/>
    <path d="m0 284 3 4-1 2c-2-3-2-3-2-6Z" fill="#1F1717"/>
</svg>
