<svg xmlns="http://www.w3.org/2000/svg" version="1.1" xmlns:xlink="http://www.w3.org/1999/xlink" xmlns:svgjs="http://svgjs.dev/svgjs" width="1440" height="560" preserveAspectRatio="none" viewBox="0 0 1440 560"><g mask="url(&quot;#SvgjsMask1018&quot;)" fill="none"><rect width="1440" height="560" x="0" y="0" fill="#0e2a47"></rect><path d="M1193 272L1192 124" stroke-width="8" stroke="url(&quot;#SvgjsLinearGradient1019&quot;)" stroke-linecap="round" class="Up"></path><path d="M581 54L580 405" stroke-width="8" stroke="url(&quot;#SvgjsLinearGradient1020&quot;)" stroke-linecap="round" class="Down"></path><path d="M787 401L786 222" stroke-width="8" stroke="url(&quot;#SvgjsLinearGradient1020&quot;)" stroke-linecap="round" class="Down"></path><path d="M295 516L294 850" stroke-width="6" stroke="url(&quot;#SvgjsLinearGradient1020&quot;)" stroke-linecap="round" class="Down"></path><path d="M1405 124L1404 -249" stroke-width="6" stroke="url(&quot;#SvgjsLinearGradient1019&quot;)" stroke-linecap="round" class="Up"></path><path d="M172 95L171 374" stroke-width="8" stroke="url(&quot;#SvgjsLinearGradient1019&quot;)" stroke-linecap="round" class="Up"></path><path d="M522 218L521 -58" stroke-width="10" stroke="url(&quot;#SvgjsLinearGradient1019&quot;)" stroke-linecap="round" class="Up"></path><path d="M864 509L863 118" stroke-width="8" stroke="url(&quot;#SvgjsLinearGradient1019&quot;)" stroke-linecap="round" class="Up"></path><path d="M933 339L932 749" stroke-width="8" stroke="url(&quot;#SvgjsLinearGradient1019&quot;)" stroke-linecap="round" class="Up"></path><path d="M799 149L798 537" stroke-width="6" stroke="url(&quot;#SvgjsLinearGradient1019&quot;)" stroke-linecap="round" class="Up"></path><path d="M350 65L349 -199" stroke-width="10" stroke="url(&quot;#SvgjsLinearGradient1019&quot;)" stroke-linecap="round" class="Up"></path><path d="M476 315L475 126" stroke-width="8" stroke="url(&quot;#SvgjsLinearGradient1019&quot;)" stroke-linecap="round" class="Up"></path><path d="M689 459L688 130" stroke-width="10" stroke="url(&quot;#SvgjsLinearGradient1019&quot;)" stroke-linecap="round" class="Up"></path><path d="M69 64L68 -209" stroke-width="6" stroke="url(&quot;#SvgjsLinearGradient1019&quot;)" stroke-linecap="round" class="Up"></path><path d="M1382 143L1381 420" stroke-width="8" stroke="url(&quot;#SvgjsLinearGradient1020&quot;)" stroke-linecap="round" class="Down"></path><path d="M1006 193L1005 -86" stroke-width="10" stroke="url(&quot;#SvgjsLinearGradient1020&quot;)" stroke-linecap="round" class="Down"></path><path d="M476 240L475 563" stroke-width="10" stroke="url(&quot;#SvgjsLinearGradient1019&quot;)" stroke-linecap="round" class="Up"></path><path d="M477 267L476 2" stroke-width="10" stroke="url(&quot;#SvgjsLinearGradient1019&quot;)" stroke-linecap="round" class="Up"></path><path d="M13 400L12 674" stroke-width="10" stroke="url(&quot;#SvgjsLinearGradient1019&quot;)" stroke-linecap="round" class="Up"></path><path d="M941 50L940 194" stroke-width="8" stroke="url(&quot;#SvgjsLinearGradient1019&quot;)" stroke-linecap="round" class="Up"></path><path d="M347 44L346 -281" stroke-width="8" stroke="url(&quot;#SvgjsLinearGradient1019&quot;)" stroke-linecap="round" class="Up"></path><path d="M1037 271L1036 654" stroke-width="6" stroke="url(&quot;#SvgjsLinearGradient1020&quot;)" stroke-linecap="round" class="Down"></path><path d="M12 209L11 -169" stroke-width="6" stroke="url(&quot;#SvgjsLinearGradient1020&quot;)" stroke-linecap="round" class="Down"></path><path d="M251 426L250 262" stroke-width="8" stroke="url(&quot;#SvgjsLinearGradient1020&quot;)" stroke-linecap="round" class="Down"></path><path d="M14 51L13 421" stroke-width="10" stroke="url(&quot;#SvgjsLinearGradient1019&quot;)" stroke-linecap="round" class="Up"></path><path d="M980 553L979 138" stroke-width="8" stroke="url(&quot;#SvgjsLinearGradient1020&quot;)" stroke-linecap="round" class="Down"></path><path d="M1202 160L1201 -1" stroke-width="8" stroke="url(&quot;#SvgjsLinearGradient1020&quot;)" stroke-linecap="round" class="Down"></path><path d="M345 251L344 77" stroke-width="8" stroke="url(&quot;#SvgjsLinearGradient1020&quot;)" stroke-linecap="round" class="Down"></path><path d="M271 240L270 -57" stroke-width="10" stroke="url(&quot;#SvgjsLinearGradient1019&quot;)" stroke-linecap="round" class="Up"></path><path d="M1406 135L1405 -24" stroke-width="6" stroke="url(&quot;#SvgjsLinearGradient1019&quot;)" stroke-linecap="round" class="Up"></path><path d="M1419 553L1418 344" stroke-width="10" stroke="url(&quot;#SvgjsLinearGradient1019&quot;)" stroke-linecap="round" class="Up"></path><path d="M566 167L565 552" stroke-width="8" stroke="url(&quot;#SvgjsLinearGradient1019&quot;)" stroke-linecap="round" class="Up"></path><path d="M232 288L231 515" stroke-width="10" stroke="url(&quot;#SvgjsLinearGradient1019&quot;)" stroke-linecap="round" class="Up"></path><path d="M667 323L666 29" stroke-width="8" stroke="url(&quot;#SvgjsLinearGradient1019&quot;)" stroke-linecap="round" class="Up"></path><path d="M29 204L28 573" stroke-width="8" stroke="url(&quot;#SvgjsLinearGradient1020&quot;)" stroke-linecap="round" class="Down"></path><path d="M1243 209L1242 -10" stroke-width="6" stroke="url(&quot;#SvgjsLinearGradient1019&quot;)" stroke-linecap="round" class="Up"></path></g><defs><mask id="SvgjsMask1018"><rect width="1440" height="560" fill="#ffffff"></rect></mask><linearGradient x1="0%" y1="100%" x2="0%" y2="0%" id="SvgjsLinearGradient1019"><stop stop-color="rgba(28, 83, 142, 0)" offset="0"></stop><stop stop-color="#1c538e" offset="1"></stop></linearGradient><linearGradient x1="0%" y1="0%" x2="0%" y2="100%" id="SvgjsLinearGradient1020"><stop stop-color="rgba(28, 83, 142, 0)" offset="0"></stop><stop stop-color="#1c538e" offset="1"></stop></linearGradient></defs></svg>